<svg xmlns="http://www.w3.org/2000/svg" xmlns:svg="http://www.w3.org/2000/svg" id="svg2" width="592.128" height="469.83" version="1.1" viewBox="-44 -44 7874.195 6244.98"><metadata id="metadata212"/><defs id="defs210"><marker id="Arrow1Send" orient="auto" refX="0" refY="0" style="overflow:visible"><path id="path3940" d="M 0,0 5,-5 -12.5,0 5,5 0,0 z" transform="matrix(-0.2,0,0,-0.2,-1.2,0)" style="fill-rule:evenodd;stroke:#000;stroke-width:1pt"/></marker><marker id="TriangleOutS" orient="auto" refX="0" refY="0" style="overflow:visible"><path id="path4073" d="m 5.77,0 -8.65,5 0,-10 8.65,5 z" transform="scale(0.2,0.2)" style="fill-rule:evenodd;stroke:#000;stroke-width:1pt"/></marker><marker id="TriangleOutM" orient="auto" refX="0" refY="0" style="overflow:visible"><path id="path4070" d="m 5.77,0 -8.65,5 0,-10 8.65,5 z" transform="scale(0.4,0.4)" style="fill-rule:evenodd;stroke:#000;stroke-width:1pt"/></marker><marker id="Arrow2Mend" orient="auto" refX="0" refY="0" style="overflow:visible"><path id="path3952" d="M 8.7185878,4.0337352 -2.2072895,0.01601326 8.7185884,-4.0017078 c -1.7454984,2.3720609 -1.7354408,5.6174519 -6e-7,8.035443 z" transform="scale(-0.6,-0.6)" style="fill-rule:evenodd;stroke-width:.625;stroke-linejoin:round"/></marker><marker id="Arrow2Lend" orient="auto" refX="0" refY="0" style="overflow:visible"><path id="path3946" d="M 8.7185878,4.0337352 -2.2072895,0.01601326 8.7185884,-4.0017078 c -1.7454984,2.3720609 -1.7354408,5.6174519 -6e-7,8.035443 z" transform="matrix(-1.1,0,0,-1.1,-1.1,0)" style="fill-rule:evenodd;stroke-width:.625;stroke-linejoin:round"/></marker><marker id="Arrow1Mend" orient="auto" refX="0" refY="0" style="overflow:visible"><path id="path3970" d="M 0,0 5,-5 -12.5,0 5,5 0,0 z" transform="matrix(-0.4,0,0,-0.4,-4,0)" style="fill-rule:evenodd;stroke:#000;stroke-width:1pt"/></marker><marker id="Arrow2Mend-7" orient="auto" refX="0" refY="0" style="overflow:visible"><path id="path3952-0" d="M 8.7185878,4.0337352 -2.2072895,0.01601326 8.7185884,-4.0017078 c -1.7454984,2.3720609 -1.7354408,5.6174519 -6e-7,8.035443 z" transform="scale(-0.6,-0.6)" style="fill-rule:evenodd;stroke-width:.625;stroke-linejoin:round"/></marker><marker id="Arrow1Send-3" orient="auto" refX="0" refY="0" style="overflow:visible"><path id="path3940-6" d="M 0,0 5,-5 -12.5,0 5,5 0,0 z" transform="matrix(-0.2,0,0,-0.2,-1.2,0)" style="fill-rule:evenodd;stroke:#000;stroke-width:1pt"/></marker><marker id="Arrow1Send-1" orient="auto" refX="0" refY="0" style="overflow:visible"><path id="path3940-2" d="M 0,0 5,-5 -12.5,0 5,5 0,0 z" transform="matrix(-0.2,0,0,-0.2,-1.2,0)" style="fill-rule:evenodd;stroke:#000;stroke-width:1pt"/></marker><marker id="Arrow1Send-0" orient="auto" refX="0" refY="0" style="overflow:visible"><path id="path3940-9" d="M 0,0 5,-5 -12.5,0 5,5 0,0 z" transform="matrix(-0.2,0,0,-0.2,-1.2,0)" style="fill-rule:evenodd;stroke:#000;stroke-width:1pt"/></marker></defs><g style="fill:none;stroke-width:.025in" id="g4" transform="translate(-2296.0293,-2364.1166)"><path style="fill:none;stroke:#969696;stroke-width:53.19251633;stroke-linecap:butt;stroke-linejoin:miter;stroke-miterlimit:4;stroke-opacity:1;stroke-dasharray:none;marker-end:url(#Arrow1Send)" id="path3134-9-0-3" d="m 6161.6776,2411.7612 0,4920.3076"/><path style="fill:none;stroke:#969696;stroke-width:53.19251633;stroke-linecap:butt;stroke-linejoin:miter;stroke-miterlimit:4;stroke-opacity:1;stroke-dasharray:none;marker-end:url(#Arrow1Send)" id="path3134-9-0" d="m 6161.6776,4672.443 -2393.6631,0.5116 0,1196.8316 2393.6631,-0.5116"/><path style="fill:none;stroke:#969696;stroke-width:53.19251633;stroke-linecap:butt;stroke-linejoin:miter;stroke-miterlimit:4;stroke-opacity:1;stroke-dasharray:none;marker-end:url(#Arrow1Send)" id="path3134-9-0-7" d="m 6161.6776,4672.443 2393.6631,0.5116 0,1196.8316 -2393.6631,-0.5116"/><rect style="fill:none;stroke:#000;stroke-width:30.00057983;stroke-linecap:butt;stroke-linejoin:miter;stroke-miterlimit:4;stroke-dasharray:30.0005789,60.00115781;stroke-dashoffset:0" id="rect118-3" width="2844.097" height="360.774" x="2333.52" y="5109.557" rx="0" ry="0"/><text id="text202-7-5" x="2562.135" y="5357.994" font-size="192" font-style="normal" font-weight="bold" xml:space="preserve" style="font-size:192px;font-style:normal;font-weight:700;text-anchor:start;fill:#000;stroke-width:.025in;font-family:Courier">rcu_sched_clock_irq()</text><rect style="fill:none;stroke:#000;stroke-width:30.00057983;stroke-linecap:butt;stroke-linejoin:miter;stroke-miterlimit:4;stroke-dasharray:30.00057902,60.00115804;stroke-dashoffset:0" id="rect118-36" width="2975.115" height="382.863" x="7069.619" y="5087.468" rx="0" ry="0"/><text id="text202-7-9-6" x="7165.252" y="5333.493" font-size="192" font-style="normal" font-weight="bold" xml:space="preserve" style="font-size:192px;font-style:normal;font-weight:700;text-anchor:start;fill:#000;stroke-width:.025in;font-family:Courier">rcu_cleanup_after_idle()</text><g id="g3058" transform="translate(-53.192514,-2819.2063)"><text style="font-size:192px;font-style:normal;font-weight:700;text-anchor:start;fill:#000;font-family:Courier" id="text202" x="5073.337" y="6532.029" font-size="192" font-style="normal" font-weight="bold" xml:space="preserve">rcu_advance_cbs()</text><rect id="rect112" width="2809.199" height="1370.872" x="4800.256" y="5650.26" rx="0" style="stroke:#000;stroke-width:30;stroke-linecap:butt;stroke-linejoin:miter"/><rect id="rect112-3" width="2809.199" height="1294.847" x="4800.256" y="5726.285" rx="0" style="fill:none;stroke:#000;stroke-width:30;stroke-linecap:butt;stroke-linejoin:miter"/><text style="font-size:192px;font-style:normal;font-weight:700;line-height:125%;text-anchor:start;fill:#000;stroke-width:.025in;font-family:Courier" id="text202-7-5-1-2-3-7" x="7220.106" y="6961.395" font-size="192" font-style="normal" font-weight="bold" xml:space="preserve"><tspan id="tspan3104-6-5" style="font-size:159.57754517px;font-style:normal;font-variant:normal;font-weight:400;font-stretch:normal;text-align:start;line-height:125%;writing-mode:lr-tb;text-anchor:start;font-family:Liberation Sans;-inkscape-font-specification:Liberation Sans">Leaf</tspan></text><text style="font-size:192px;font-style:normal;font-weight:700;text-anchor:start;fill:#000;stroke-width:.025in;font-family:Courier" id="text202-3" x="5073.337" y="6321.925" font-size="192" font-style="normal" font-weight="bold" xml:space="preserve">__note_gp_changes()</text></g><g id="g3049" transform="translate(26.596257,6090.5512)"><path id="path3084-3" d="m 385.2961,345.54001 c 0,21.84301 -29.51209,39.55026 -65.9171,39.55026 -36.40501,0 -65.91711,-17.70725 -65.91711,-39.55026 0,-21.84301 29.5121,-39.55026 65.91711,-39.55026 36.40501,0 65.9171,17.70725 65.9171,39.55026 z" transform="matrix(13.298129,0,0,13.298129,1872.6808,-2726.4833)" style="fill:#ffffa1;fill-opacity:0;stroke:#000;stroke-width:2.25600004;stroke-miterlimit:4;stroke-opacity:1;stroke-dasharray:2.256,4.512;stroke-dashoffset:0"/><text style="font-size:192px;font-style:normal;font-weight:700;line-height:125%;text-anchor:start;fill:#000;stroke-width:.025in;font-family:Courier" id="text202-7-5-1-2-6" x="5717.452" y="1785.207" font-size="192" font-style="normal" font-weight="bold" xml:space="preserve"><tspan id="tspan3104-7" style="font-size:159.57754517px;font-style:normal;font-variant:normal;font-weight:400;font-stretch:normal;text-align:start;line-height:125%;writing-mode:lr-tb;text-anchor:start;font-family:Liberation Sans;-inkscape-font-specification:Liberation Sans">Phase Two</tspan></text><text id="text3110-5" x="6119.668" y="2005.662" xml:space="preserve" style="font-size:159.57754517px;font-style:normal;font-weight:400;text-align:center;line-height:125%;letter-spacing:0;word-spacing:0;text-anchor:middle;fill:#000;fill-opacity:1;stroke:none;font-family:Sans"><tspan id="tspan3112-3" x="6119.668" y="2005.662">of Update</tspan></text></g><rect style="fill:none;stroke:#000;stroke-width:30.00057793;stroke-linecap:butt;stroke-linejoin:miter;stroke-miterlimit:4;stroke-dasharray:30.00057858,60.00115716;stroke-dashoffset:0" id="rect118-36-3" width="1994.719" height="664.907" x="5097.827" y="6268.218" rx="0" ry="0"/><text id="text202-7-9-6-6" x="5363.789" y="6534.181" font-size="192" font-style="normal" font-weight="bold" xml:space="preserve" style="font-size:192px;font-style:normal;font-weight:700;text-anchor:start;fill:#000;stroke-width:.025in;font-family:Courier">RCU_SOFTIRQ</text><text id="text202-7-9-6-6-7" x="5363.789" y="6800.144" font-size="192" font-style="normal" font-weight="bold" xml:space="preserve" style="font-size:192px;font-style:normal;font-weight:700;text-anchor:start;fill:#000;stroke-width:.025in;font-family:Courier">rcu_do_batch()</text></g></svg>