<svg xmlns="http://www.w3.org/2000/svg" xmlns:svg="http://www.w3.org/2000/svg" id="svg2" width="788.388" height="362.302" version="1.1" viewBox="0 0 739.114 339.658" xml:space="preserve"><metadata id="metadata8"/><defs id="defs6"><clipPath id="clipPath44" clipPathUnits="userSpaceOnUse"><path style="clip-rule:evenodd" id="path46" d="m 0,0 0,1895 4118,0 L 4118,0 0,0 Z m 3051.62,250.48 8.19,17.01 -46.93,23.31 29.61,-25.515 -38.12,8.505 47.25,-23.31 z m -1559.25,800.73 -8.5,-17.01 46.93,-23.31 -29.29,25.2 37.8,-8.19 -46.94,23.31 z"/></clipPath><clipPath id="clipPath64" clipPathUnits="userSpaceOnUse"><path style="clip-rule:evenodd" id="path66" d="m 0,0 0,1895 4118,0 0,-1626 -1,0 0,1 -2,0 0,1 -2,0 0,1 -2,0 0,1 -2,0 0,1 -2,0 0,1 -2,0 0,1 -2,0 0,1 -2,0 0,1 -2,0 0,1 -2,0 0,1 -2,0 0,1 -2,0 0,1 -2,0 0,1 -2,0 0,1 -2,0 0,1 -2,0 0,1 -2,0 0,1 -1,0 0,-1 1,0 0,-1 1,0 0,-1 2,0 0,-1 1,0 0,-1 1,0 0,-1 1,0 0,-1 1,0 0,-1 1,0 0,-1 2,0 0,-1 1,0 0,-1 1,0 0,-1 1,0 0,-1 1,0 0,-1 1,0 0,-1 1,0 0,-1 2,0 0,-1 1,0 0,-1 1,0 0,-1 1,0 0,-1 1,0 0,-1 1,0 0,-1 -4,0 0,1 -5,0 0,1 -4,0 0,1 -5,0 0,1 -4,0 0,1 -4,0 0,1 -4,0 0,-1 2,0 0,-1 2,0 0,-1 2,0 0,-1 2,0 0,-1 2,0 0,-1 2,0 0,-1 2,0 0,-1 2,0 0,-1 2,0 0,-1 2,0 0,-1 2,0 0,-1 2,0 0,-1 2,0 0,-1 2,0 0,-1 2,0 0,-1 2,0 0,-1 2,0 0,-1 2,0 0,-1 2,0 0,-1 1,0 0,3 1,0 0,2 1,0 0,2 1,0 L 4118,0 0,0 Z m 4074,272 0,-1 1,0 0,1 -1,0 z m -1486,743 0,-1 1,0 0,1 -1,0 z m -2,1 0,-1 1,0 0,1 -1,0 0,1 -1,0 0,1 -1,0 0,1 -1,0 0,1 -1,0 0,1 -1,0 0,1 -2,0 0,1 -1,0 0,1 -1,0 0,1 -1,0 0,1 -1,0 0,1 -1,0 0,1 -2,0 0,1 -1,0 0,1 -1,0 0,1 -1,0 0,1 -1,0 0,1 -1,0 0,1 -2,0 0,1 -1,0 0,2 2,0 0,-1 4,0 0,-1 5,0 0,-1 4,0 0,-1 5,0 0,-1 5,0 0,-1 4,0 0,-1 3,0 0,1 -2,0 0,1 -2,0 0,1 -2,0 0,1 -2,0 0,1 -2,0 0,1 -2,0 0,1 -2,0 0,1 -2,0 0,1 -2,0 0,1 -2,0 0,1 -2,0 0,1 -2,0 0,1 -2,0 0,1 -2,0 0,1 -3,0 0,1 -2,0 0,1 -2,0 0,1 -2,0 0,1 -2,0 0,1 -2,0 0,-2 -1,0 0,-2 -1,0 0,-2 -1,0 0,-2 -1,0 0,-2 -1,0 0,-2 -1,0 0,-2 -1,0 0,-2 2,0 0,-1 2,0 0,-1 2,0 0,-1 2,0 0,-1 2,0 0,-1 2,0 0,-1 2,0 0,-1 2,0 0,-1 2,0 0,-1 2,0 0,-1 2,0 0,-1 2,0 0,-1 2,0 0,-1 2,0 0,-1 2,0 0,-1 2,0 0,-1 2,0 0,-1 2,0 0,-1 2,0 z"/></clipPath><clipPath id="clipPath84" clipPathUnits="userSpaceOnUse"><path style="clip-rule:evenodd" id="path86" d="m 0,0 0,1895 4118,0 0,-136 -3,0 0,-1 -11,0 0,-1 -11,0 0,-1 -11,0 0,-1 -11,0 0,-1 5,0 0,-1 6,0 0,-1 7,0 0,-1 6,0 0,-1 6,0 0,-1 4,0 0,-1 -1,0 0,-1 -3,0 0,-1 -3,0 0,-1 -2,0 0,-1 -3,0 0,-1 -3,0 0,-1 -3,0 0,-1 -3,0 0,-1 -3,0 0,-1 -3,0 0,-1 -3,0 0,-1 7,0 0,1 11,0 0,1 11,0 0,1 11,0 0,1 3,0 L 4118,0 0,0 Z m 2552,1599 0,-1 2,0 0,1 11,0 0,1 11,0 0,1 11,0 0,1 11,0 0,1 -4,0 0,1 -7,0 0,1 -6,0 0,1 -7,0 0,1 -6,0 0,1 -3,0 0,1 2,0 0,1 2,0 0,1 3,0 0,1 3,0 0,1 3,0 0,1 3,0 0,1 3,0 0,1 2,0 0,1 3,0 0,1 3,0 0,1 3,0 0,1 -7,0 0,-1 -12,0 0,-1 -11,0 0,-1 -11,0 0,-1 -4,0 0,-1 1,0 0,-12 1,0 0,-4 z"/></clipPath><clipPath id="clipPath104" clipPathUnits="userSpaceOnUse"><path style="clip-rule:evenodd" id="path106" d="m 0,0 0,1895 4118,0 L 4118,0 0,0 Z m 3056.98,1740.43 -1.58,18.9 -52.6,-4.72 38.74,-6.3 -36.85,-12.6 52.29,4.72 z m -1570.28,-123.79 1.58,-18.9 52.6,4.72 -38.43,5.99 36.54,12.91 -52.29,-4.72 z"/></clipPath></defs><g id="g10" transform="matrix(1.25,0,0,-1.25,-0.35237428,339.91141)"><path id="path16" d="m 411.08474,0.37218832 0,271.38551168 -37.17867,0 0,-1.94649 -205.3611,1.94649 0,-2.58046 -155.911966,0 0,-1.90192 17.977663,-264.3219406 -17.977663,0 0,-2.58119108 193.135216,0 0,2.58119108 -137.934309,0 0,264.3219406 333.650679,0 0,-264.3219406 -177.10547,0 0,-1.947197 149.52695,0 0,-0.63399408" style="fill:#7f7f7f;fill-opacity:1;fill-rule:evenodd;stroke:none"/><path id="path18" d="m 411.08474,0.37218832 0,271.38551168 -37.17867,0 0,-1.94649 -205.3611,1.94649 0,-2.58046 -155.911966,0 0,-1.90192 17.977663,-264.3219406 -17.977663,0 0,-2.58119108 193.135216,0 0,2.58119108 -137.934309,0 0,264.3219406 333.650679,0 0,-264.3219406 -177.10547,0 0,-1.947197 149.52695,0 0,-0.63399408 37.17867,0 z" style="fill:none;stroke:#000;stroke-width:.33962813;stroke-linecap:butt;stroke-linejoin:miter;stroke-miterlimit:10;stroke-dasharray:none;stroke-opacity:1"/><path id="path20" d="m 40.256106,6.8024838 366.979524,0 0,253.4078762 -366.979524,0 0,-253.4078762 z" style="fill:none;stroke:red;stroke-width:.33962813;stroke-linecap:butt;stroke-linejoin:miter;stroke-miterlimit:10;stroke-dasharray:none;stroke-opacity:1"/><path id="path22" d="m 77.434066,7.4364707 316.352284,0 0,244.4416893 -316.352284,0 0,-244.4416893 z" style="fill:none;stroke:#00f;stroke-width:.33962813;stroke-linecap:butt;stroke-linejoin:miter;stroke-miterlimit:10;stroke-dasharray:none;stroke-opacity:1"/><path id="path24" d="m 214.41669,149.49157 152.83195,0 0,81.51075 -152.83195,0 0,-81.51075 z" style="fill:none;stroke:#00b000;stroke-width:.33962813;stroke-linecap:butt;stroke-linejoin:miter;stroke-miterlimit:10;stroke-dasharray:none;stroke-opacity:1"/><path id="path26" d="m 438.57126,37.414285 152.83194,0 0,213.966445 -152.83194,0 0,-213.966445 z" style="fill:none;stroke:#d100d1;stroke-width:.33962813;stroke-linecap:butt;stroke-linejoin:miter;stroke-miterlimit:10;stroke-dasharray:none;stroke-opacity:1"/><path id="path28" d="m 0.45168907,271.7577 168.09328093,0 0,-2.58046 -155.911966,0 0,-1.90192 17.977663,0 0,-264.3219406 -17.977663,0 0,-2.58119108 -12.18131493,0" style="fill:#000;fill-opacity:1;fill-rule:evenodd;stroke:none"/><path id="path30" d="m 0.45168907,271.7577 168.09328093,0 0,-2.58046 -155.911966,0 0,-1.90192 17.977663,0 0,-264.3219406 -17.977663,0 0,-2.58119108 -12.18131493,0 0,271.38551168 z" style="fill:none;stroke:#000;stroke-width:.33962813;stroke-linecap:butt;stroke-linejoin:miter;stroke-miterlimit:10;stroke-dasharray:none;stroke-opacity:1"/><path id="path32" d="m 373.90607,0.37218832 0,0.63399408 -149.52695,0 0,1.947197 -18.6109,0 0,-2.58119108" style="fill:#000;fill-opacity:1;fill-rule:evenodd;stroke:none"/><path id="path34" d="m 373.90607,0.37218832 0,0.63399408 -149.52695,0 0,1.947197 -18.6109,0 0,-2.58119108 168.13785,0 z" style="fill:none;stroke:#000;stroke-width:.33962813;stroke-linecap:butt;stroke-linejoin:miter;stroke-miterlimit:10;stroke-dasharray:none;stroke-opacity:1"/><path id="path36" d="m 205.76822,271.7577 168.13785,0 0,-1.94649 -149.52695,0 0,-2.53589 -18.6109,0" style="fill:#000;fill-opacity:1;fill-rule:evenodd;stroke:none"/><path id="path38" d="m 205.76822,271.7577 168.13785,0 0,-1.94649 -149.52695,0 0,-2.53589 -18.6109,0 0,4.48238 z" style="fill:none;stroke:#000;stroke-width:.33962813;stroke-linecap:butt;stroke-linejoin:miter;stroke-miterlimit:10;stroke-dasharray:none;stroke-opacity:1"/><g id="g40" transform="matrix(0.14375794,0,0,0.14375794,-0.12334269,-0.08856738)"><g id="g42" clip-path="url(#clipPath44)"><path style="fill:none;stroke:#000;stroke-width:2.36249995;stroke-linecap:butt;stroke-linejoin:miter;stroke-miterlimit:10;stroke-dasharray:none;stroke-opacity:1" id="path48" d="M 1492.37,1040.5 3051.62,260.875"/></g></g><g id="g50" transform="matrix(0.14375794,0,0,0.14375794,-0.12334269,-0.08856738)"><path style="fill:#000;fill-opacity:1;fill-rule:evenodd;stroke:none" id="path52" d="m 1539.31,1027.9 -37.8,8.19 29.29,-25.2 8.51,17.01"/><path style="fill:none;stroke:#000;stroke-width:4.7249999;stroke-linecap:butt;stroke-linejoin:miter;stroke-miterlimit:10;stroke-dasharray:none;stroke-opacity:1" id="path54" d="m 1539.31,1027.9 -37.8,8.19 29.29,-25.2 8.51,17.01 z"/><path style="fill:#000;fill-opacity:1;fill-rule:evenodd;stroke:none" id="path56" d="m 3004.37,273.79 38.12,-8.505 -29.61,25.515 -8.51,-17.01"/><path style="fill:none;stroke:#000;stroke-width:4.7249999;stroke-linecap:butt;stroke-linejoin:miter;stroke-miterlimit:10;stroke-dasharray:none;stroke-opacity:1" id="path58" d="m 3004.37,273.79 38.12,-8.505 -29.61,25.515 -8.51,-17.01 z"/></g><g id="g60" transform="matrix(0.14375794,0,0,0.14375794,-0.12334269,-0.08856738)"><g id="g62" clip-path="url(#clipPath64)"><path style="fill:none;stroke:#000;stroke-width:2.36249995;stroke-linecap:butt;stroke-linejoin:miter;stroke-miterlimit:10;stroke-dasharray:none;stroke-opacity:1" id="path68" d="M 2555.5,1040.5 4114.75,260.875"/></g></g><g id="g70" transform="matrix(0.14375794,0,0,0.14375794,-0.12334269,-0.08856738)"><path style="fill:#000;fill-opacity:1;fill-rule:evenodd;stroke:none" id="path72" d="m 2602.43,1027.9 -37.8,8.19 29.3,-25.2 8.5,17.01"/><path style="fill:none;stroke:#000;stroke-width:4.7249999;stroke-linecap:butt;stroke-linejoin:miter;stroke-miterlimit:10;stroke-dasharray:none;stroke-opacity:1" id="path74" d="m 2602.43,1027.9 -37.8,8.19 29.3,-25.2 8.5,17.01 z"/><path style="fill:#000;fill-opacity:1;fill-rule:evenodd;stroke:none" id="path76" d="m 4067.5,273.79 38.11,-8.505 -29.61,25.515 -8.5,-17.01"/><path style="fill:none;stroke:#000;stroke-width:4.7249999;stroke-linecap:butt;stroke-linejoin:miter;stroke-miterlimit:10;stroke-dasharray:none;stroke-opacity:1" id="path78" d="m 4067.5,273.79 38.11,-8.505 -29.61,25.515 -8.5,-17.01 z"/></g><g id="g80" transform="matrix(0.14375794,0,0,0.14375794,-0.12334269,-0.08856738)"><g id="g82" clip-path="url(#clipPath84)"><path style="fill:none;stroke:#000;stroke-width:2.36249995;stroke-linecap:butt;stroke-linejoin:miter;stroke-miterlimit:10;stroke-dasharray:none;stroke-opacity:1" id="path88" d="m 2555.5,1607.5 1559.25,141.75"/></g></g><g id="g90" transform="matrix(0.14375794,0,0,0.14375794,-0.12334269,-0.08856738)"><path style="fill:#000;fill-opacity:1;fill-rule:evenodd;stroke:none" id="path92" d="m 2602.12,1621.36 -36.54,-12.91 38.43,-5.99 -1.89,18.9"/><path style="fill:none;stroke:#000;stroke-width:4.7249999;stroke-linecap:butt;stroke-linejoin:miter;stroke-miterlimit:10;stroke-dasharray:none;stroke-opacity:1" id="path94" d="m 2602.12,1621.36 -36.54,-12.91 38.43,-5.99 -1.89,18.9 z"/><path style="fill:#000;fill-opacity:1;fill-rule:evenodd;stroke:none" id="path96" d="m 4067.81,1735.71 36.86,12.6 -38.75,6.3 1.89,-18.9"/><path style="fill:none;stroke:#000;stroke-width:4.7249999;stroke-linecap:butt;stroke-linejoin:miter;stroke-miterlimit:10;stroke-dasharray:none;stroke-opacity:1" id="path98" d="m 4067.81,1735.71 36.86,12.6 -38.75,6.3 1.89,-18.9 z"/></g><g id="g100" transform="matrix(0.14375794,0,0,0.14375794,-0.12334269,-0.08856738)"><g id="g102" clip-path="url(#clipPath104)"><path style="fill:none;stroke:#000;stroke-width:2.36249995;stroke-linecap:butt;stroke-linejoin:miter;stroke-miterlimit:10;stroke-dasharray:none;stroke-opacity:1" id="path108" d="m 1492.37,1607.5 1559.25,141.75"/></g></g><path id="path112" d="m 221.11869,232.99481 -5.25292,-1.85592 5.52462,-0.86111 -0.2717,2.71703" style="fill:#000;fill-opacity:1;fill-rule:evenodd;stroke:none"/><path id="path114" d="m 221.11869,232.99481 -5.25292,-1.85592 5.52462,-0.86111 -0.2717,2.71703 z" style="fill:none;stroke:#000;stroke-width:.67925626;stroke-linecap:butt;stroke-linejoin:miter;stroke-miterlimit:10;stroke-dasharray:none;stroke-opacity:1"/><path id="path116" d="m 431.8247,249.43353 5.29748,1.81135 -5.56918,0.90567 0.2717,-2.71702" style="fill:#000;fill-opacity:1;fill-rule:evenodd;stroke:none"/><path id="path118" d="m 431.8247,249.43353 5.29748,1.81135 -5.56918,0.90567 0.2717,-2.71702 z" style="fill:none;stroke:#000;stroke-width:.67925626;stroke-linecap:butt;stroke-linejoin:miter;stroke-miterlimit:10;stroke-dasharray:none;stroke-opacity:1"/><g id="g120" transform="matrix(1.4375794,0,0,1.4375794,-0.12334269,-0.08856738)"><text id="text122" transform="matrix(1,0,0,-1,204.52,9.07751)" style="font-variant:normal;font-weight:400;font-size:6.61499977px;font-family:sans-serif;-inkscape-font-specification:sans-serif;writing-mode:lr-tb;fill:#d10000;fill-opacity:1;fill-rule:nonzero;stroke:none"><tspan id="tspan124" x="0 3.307 6.985 8.454 12.132 15.81 19.117 21.32 24.998 28.676 31.984 35.661 39.339 41.178 44.856 48.534 52.212 55.89 59.568" y="0">v4l2_cropcap.bounds</tspan></text></g><g id="g126" transform="matrix(1.4375794,0,0,1.4375794,-0.12334269,-0.08856738)"><text id="text128" transform="matrix(1,0,0,-1,58.5175,166.42)" style="font-variant:normal;font-weight:400;font-size:6.61499977px;font-family:sans-serif;-inkscape-font-specification:sans-serif;writing-mode:lr-tb;fill:#0000d1;fill-opacity:1;fill-rule:nonzero;stroke:none"><tspan id="tspan130" x="0 3.307 6.985 8.454 12.132 15.81 19.117 21.32 24.998 28.676 31.984 35.661 39.339 41.178 44.856 48.534 50.373 52.576 56.254 59.561" y="0">v4l2_cropcap.defrect</tspan></text></g><g id="g132" transform="matrix(1.4375794,0,0,1.4375794,-0.12334269,-0.08856738)"><text id="text134" transform="matrix(1,0,0,-1,153.49,152.245)" style="font-variant:normal;font-weight:400;font-size:6.61499977px;font-family:sans-serif;-inkscape-font-specification:sans-serif;writing-mode:lr-tb;fill:#008f00;fill-opacity:1;fill-rule:nonzero;stroke:none"><tspan id="tspan136" x="0 3.307 6.985 8.454 12.132 15.81 19.117 21.32 24.998 28.676 30.515" y="0">v4l2_crop.c</tspan></text></g><g id="g138" transform="matrix(1.4375794,0,0,1.4375794,-0.12334269,-0.08856738)"><text id="text140" transform="matrix(1,0,0,-1,309.415,30.34)" style="font-variant:normal;font-weight:400;font-size:6.61499977px;font-family:sans-serif;-inkscape-font-specification:sans-serif;writing-mode:lr-tb;fill:#b000b0;fill-opacity:1;fill-rule:nonzero;stroke:none"><tspan id="tspan142" x="0 3.307 6.985 8.454 12.132 15.81 17.649 21.327 23.53 29.04 32.718" y="0">v4l2_format</tspan></text></g></g></svg>