<svg xmlns="http://www.w3.org/2000/svg" xmlns:svg="http://www.w3.org/2000/svg" id="svg2" width="545.319" height="265.634" preserveAspectRatio="xMidYMid" version="1.2" viewBox="0 0 14428.222 7028.223" xml:space="preserve" style="fill-rule:evenodd;stroke-width:28.22200012;stroke-linejoin:round"><metadata id="metadata953"/><g id="g188" class="com.sun.star.drawing.CustomShape" transform="translate(-3285.889,-3185.889)"><g id="id6"><rect id="rect191" width="2403" height="1403" x="3299" y="3199" class="BoundingBox" style="fill:none;stroke:none"/><path id="path193" d="m 4500,4600 -1200,0 0,-1400 2400,0 0,1400 -1200,0 z" style="fill:none;stroke:#3465a4"/><text id="text195" class="TextShape"><tspan id="tspan197" class="TextParagraph" font-size="635" font-weight="400" style="font-weight:400;font-size:635px;font-family:sans-serif"><tspan id="tspan199" x="4325" y="4121" class="TextPosition"><tspan id="tspan201" style="fill:#000;stroke:none">0</tspan></tspan></tspan></text></g></g><g id="g203" class="com.sun.star.drawing.CustomShape" transform="translate(-3285.889,-3185.889)"><g id="id7"><rect id="rect206" width="2403" height="1403" x="5699" y="3199" class="BoundingBox" style="fill:none;stroke:none"/><path id="path208" d="m 6900,4600 -1200,0 0,-1400 2400,0 0,1400 -1200,0 z" style="fill:none;stroke:#3465a4"/></g></g><g id="g210" class="com.sun.star.drawing.CustomShape" transform="translate(-3285.889,-3185.889)"><g id="id8"><rect id="rect213" width="2403" height="1403" x="8099" y="3199" class="BoundingBox" style="fill:none;stroke:none"/><path id="path215" d="m 9300,4600 -1200,0 0,-1400 2400,0 0,1400 -1200,0 z" style="fill:none;stroke:#3465a4"/><text id="text217" class="TextShape"><tspan id="tspan219" class="TextParagraph" font-size="635" font-weight="400" style="font-weight:400;font-size:635px;font-family:sans-serif"><tspan id="tspan221" x="9125" y="4121" class="TextPosition"><tspan id="tspan223" style="fill:#000;stroke:none">6</tspan></tspan></tspan></text></g></g><g id="g225" class="com.sun.star.drawing.CustomShape" transform="translate(-3285.889,-3185.889)"><g id="id9"><rect id="rect228" width="2403" height="1403" x="5699" y="3199" class="BoundingBox" style="fill:none;stroke:none"/><path id="path230" d="m 6900,4600 -1200,0 0,-1400 2400,0 0,1400 -1200,0 z" style="fill:none;stroke:#3465a4"/><text id="text232" class="TextShape"><tspan id="tspan234" class="TextParagraph" font-size="635" font-weight="400" style="font-weight:400;font-size:635px;font-family:sans-serif"><tspan id="tspan236" x="6725" y="4121" class="TextPosition"><tspan id="tspan238" style="fill:#000;stroke:none">1</tspan></tspan></tspan></text></g></g><g id="g240" class="com.sun.star.drawing.CustomShape" transform="translate(-3285.889,-3185.889)"><g id="id10"><rect id="rect243" width="2403" height="1403" x="10499" y="3199" class="BoundingBox" style="fill:none;stroke:none"/><path id="path245" d="m 11700,4600 -1200,0 0,-1400 2400,0 0,1400 -1200,0 z" style="fill:none;stroke:#3465a4"/><text id="text247" class="TextShape"><tspan id="tspan249" class="TextParagraph" font-size="635" font-weight="400" style="font-weight:400;font-size:635px;font-family:sans-serif"><tspan id="tspan251" x="11525" y="4121" class="TextPosition"><tspan id="tspan253" style="fill:#000;stroke:none">7</tspan></tspan></tspan></text></g></g><g id="g255" class="com.sun.star.drawing.CustomShape" transform="translate(-3285.889,-3185.889)"><g id="id11"><rect id="rect258" width="2403" height="1403" x="12899" y="3199" class="BoundingBox" style="fill:none;stroke:none"/><path id="path260" d="m 14100,4600 -1200,0 0,-1400 2400,0 0,1400 -1200,0 z" style="fill:none;stroke:#3465a4"/></g></g><g id="g262" class="com.sun.star.drawing.CustomShape" transform="translate(-3285.889,-3185.889)"><g id="id12"><rect id="rect265" width="2403" height="1403" x="15299" y="3199" class="BoundingBox" style="fill:none;stroke:none"/><path id="path267" d="m 16500,4600 -1200,0 0,-1400 2400,0 0,1400 -1200,0 z" style="fill:none;stroke:#3465a4"/><text id="text269" class="TextShape"><tspan id="tspan271" class="TextParagraph" font-size="635" font-weight="400" style="font-weight:400;font-size:635px;font-family:sans-serif"><tspan id="tspan273" x="16325" y="4121" class="TextPosition"><tspan id="tspan275" style="fill:#000;stroke:none">9</tspan></tspan></tspan></text></g></g><g id="g277" class="com.sun.star.drawing.CustomShape" transform="translate(-3285.889,-3185.889)"><g id="id13"><rect id="rect280" width="2403" height="1403" x="12899" y="3199" class="BoundingBox" style="fill:none;stroke:none"/><path id="path282" d="m 14100,4600 -1200,0 0,-1400 2400,0 0,1400 -1200,0 z" style="fill:none;stroke:#3465a4"/><text id="text284" class="TextShape"><tspan id="tspan286" class="TextParagraph" font-size="635" font-weight="400" style="font-weight:400;font-size:635px;font-family:sans-serif"><tspan id="tspan288" x="13925" y="4121" class="TextPosition"><tspan id="tspan290" style="fill:#000;stroke:none">8</tspan></tspan></tspan></text></g></g><g id="g292" class="com.sun.star.drawing.CustomShape" transform="translate(-3285.889,-3185.889)"><g id="id14"><rect id="rect295" width="2403" height="1403" x="3299" y="4599" class="BoundingBox" style="fill:none;stroke:none"/><path id="path297" d="m 4500,6000 -1200,0 0,-1400 2400,0 0,1400 -1200,0 z" style="fill:none;stroke:#3465a4"/><text id="text299" class="TextShape"><tspan id="tspan301" class="TextParagraph" font-size="635" font-weight="400" style="font-weight:400;font-size:635px;font-family:sans-serif"><tspan id="tspan303" x="4325" y="5521" class="TextPosition"><tspan id="tspan305" style="fill:#000;stroke:none">2</tspan></tspan></tspan></text></g></g><g id="g307" class="com.sun.star.drawing.CustomShape" transform="translate(-3285.889,-3185.889)"><g id="id15"><rect id="rect310" width="2403" height="1403" x="5699" y="4599" class="BoundingBox" style="fill:none;stroke:none"/><path id="path312" d="m 6900,6000 -1200,0 0,-1400 2400,0 0,1400 -1200,0 z" style="fill:none;stroke:#3465a4"/></g></g><g id="g314" class="com.sun.star.drawing.CustomShape" transform="translate(-3285.889,-3185.889)"><g id="id16"><rect id="rect317" width="2403" height="1403" x="8099" y="4599" class="BoundingBox" style="fill:none;stroke:none"/><path id="path319" d="m 9300,6000 -1200,0 0,-1400 2400,0 0,1400 -1200,0 z" style="fill:none;stroke:#3465a4"/><text id="text321" class="TextShape"><tspan id="tspan323" class="TextParagraph" font-size="635" font-weight="400" style="font-weight:400;font-size:635px;font-family:sans-serif"><tspan id="tspan325" x="9125" y="5521" class="TextPosition"><tspan id="tspan327" style="fill:#000;stroke:none">4</tspan></tspan></tspan></text></g></g><g id="g329" class="com.sun.star.drawing.CustomShape" transform="translate(-3285.889,-3185.889)"><g id="id17"><rect id="rect332" width="2403" height="1403" x="5699" y="4599" class="BoundingBox" style="fill:none;stroke:none"/><path id="path334" d="m 6900,6000 -1200,0 0,-1400 2400,0 0,1400 -1200,0 z" style="fill:none;stroke:#3465a4"/><text id="text336" class="TextShape"><tspan id="tspan338" class="TextParagraph" font-size="635" font-weight="400" style="font-weight:400;font-size:635px;font-family:sans-serif"><tspan id="tspan340" x="6725" y="5521" class="TextPosition"><tspan id="tspan342" style="fill:#000;stroke:none">3</tspan></tspan></tspan></text></g></g><g id="g344" class="com.sun.star.drawing.CustomShape" transform="translate(-3285.889,-3185.889)"><g id="id18"><rect id="rect347" width="2403" height="1403" x="10499" y="4599" class="BoundingBox" style="fill:none;stroke:none"/><path id="path349" d="m 11700,6000 -1200,0 0,-1400 2400,0 0,1400 -1200,0 z" style="fill:none;stroke:#3465a4"/><text id="text351" class="TextShape"><tspan id="tspan353" class="TextParagraph" font-size="635" font-weight="400" style="font-weight:400;font-size:635px;font-family:sans-serif"><tspan id="tspan355" x="11525" y="5521" class="TextPosition"><tspan id="tspan357" style="fill:#000;stroke:none">5</tspan></tspan></tspan></text></g></g><g id="g359" class="com.sun.star.drawing.CustomShape" transform="translate(-3285.889,-3185.889)"><g id="id19"><rect id="rect362" width="2403" height="1403" x="12899" y="4599" class="BoundingBox" style="fill:none;stroke:none"/><path id="path364" d="m 14100,6000 -1200,0 0,-1400 2400,0 0,1400 -1200,0 z" style="fill:none;stroke:#3465a4"/></g></g><g id="g366" class="com.sun.star.drawing.CustomShape" transform="translate(-3285.889,-3185.889)"><g id="id20"><rect id="rect369" width="2403" height="1403" x="15299" y="4599" class="BoundingBox" style="fill:none;stroke:none"/><path id="path371" d="m 16500,6000 -1200,0 0,-1400 2400,0 0,1400 -1200,0 z" style="fill:none;stroke:#3465a4"/><text id="text373" class="TextShape"><tspan id="tspan375" class="TextParagraph" font-size="635" font-weight="400" style="font-weight:400;font-size:635px;font-family:sans-serif"><tspan id="tspan377" x="16149" y="5521" class="TextPosition"><tspan id="tspan379" style="fill:#000;stroke:none">11</tspan></tspan></tspan></text></g></g><g id="g381" class="com.sun.star.drawing.CustomShape" transform="translate(-3285.889,-3185.889)"><g id="id21"><rect id="rect384" width="2403" height="1403" x="12899" y="4599" class="BoundingBox" style="fill:none;stroke:none"/><path id="path386" d="m 14100,6000 -1200,0 0,-1400 2400,0 0,1400 -1200,0 z" style="fill:none;stroke:#3465a4"/><text id="text388" class="TextShape"><tspan id="tspan390" class="TextParagraph" font-size="635" font-weight="400" style="font-weight:400;font-size:635px;font-family:sans-serif"><tspan id="tspan392" x="13749" y="5521" class="TextPosition"><tspan id="tspan394" style="fill:#000;stroke:none">10</tspan></tspan></tspan></text></g></g><g id="g396" class="com.sun.star.drawing.CustomShape" transform="translate(-3285.889,-3185.889)"><g id="id22"><rect id="rect399" width="2403" height="1403" x="3299" y="5999" class="BoundingBox" style="fill:none;stroke:none"/><path id="path401" d="m 4500,7400 -1200,0 0,-1400 2400,0 0,1400 -1200,0 z" style="fill:none;stroke:#3465a4"/><text id="text403" class="TextShape"><tspan id="tspan405" class="TextParagraph" font-size="635" font-weight="400" style="font-weight:400;font-size:635px;font-family:sans-serif"><tspan id="tspan407" x="4149" y="6921" class="TextPosition"><tspan id="tspan409" style="fill:#000;stroke:none">12</tspan></tspan></tspan></text></g></g><g id="g411" class="com.sun.star.drawing.CustomShape" transform="translate(-3285.889,-3185.889)"><g id="id23"><rect id="rect414" width="2403" height="1403" x="5699" y="5999" class="BoundingBox" style="fill:none;stroke:none"/><path id="path416" d="m 6900,7400 -1200,0 0,-1400 2400,0 0,1400 -1200,0 z" style="fill:none;stroke:#3465a4"/></g></g><g id="g418" class="com.sun.star.drawing.CustomShape" transform="translate(-3285.889,-3185.889)"><g id="id24"><rect id="rect421" width="2403" height="1403" x="8099" y="5999" class="BoundingBox" style="fill:none;stroke:none"/><path id="path423" d="m 9300,7400 -1200,0 0,-1400 2400,0 0,1400 -1200,0 z" style="fill:none;stroke:#3465a4"/><text id="text425" class="TextShape"><tspan id="tspan427" class="TextParagraph" font-size="635" font-weight="400" style="font-weight:400;font-size:635px;font-family:sans-serif"><tspan id="tspan429" x="8949" y="6921" class="TextPosition"><tspan id="tspan431" style="fill:#000;stroke:none">18</tspan></tspan></tspan></text></g></g><g id="g433" class="com.sun.star.drawing.CustomShape" transform="translate(-3285.889,-3185.889)"><g id="id25"><rect id="rect436" width="2403" height="1403" x="5699" y="5999" class="BoundingBox" style="fill:none;stroke:none"/><path id="path438" d="m 6900,7400 -1200,0 0,-1400 2400,0 0,1400 -1200,0 z" style="fill:none;stroke:#3465a4"/><text id="text440" class="TextShape"><tspan id="tspan442" class="TextParagraph" font-size="635" font-weight="400" style="font-weight:400;font-size:635px;font-family:sans-serif"><tspan id="tspan444" x="6549" y="6921" class="TextPosition"><tspan id="tspan446" style="fill:#000;stroke:none">13</tspan></tspan></tspan></text></g></g><g id="g448" class="com.sun.star.drawing.CustomShape" transform="translate(-3285.889,-3185.889)"><g id="id26"><rect id="rect451" width="2403" height="1403" x="10499" y="5999" class="BoundingBox" style="fill:none;stroke:none"/><path id="path453" d="m 11700,7400 -1200,0 0,-1400 2400,0 0,1400 -1200,0 z" style="fill:none;stroke:#3465a4"/><text id="text455" class="TextShape"><tspan id="tspan457" class="TextParagraph" font-size="635" font-weight="400" style="font-weight:400;font-size:635px;font-family:sans-serif"><tspan id="tspan459" x="11349" y="6921" class="TextPosition"><tspan id="tspan461" style="fill:#000;stroke:none">19</tspan></tspan></tspan></text></g></g><g id="g463" class="com.sun.star.drawing.CustomShape" transform="translate(-3285.889,-3185.889)"><g id="id27"><rect id="rect466" width="2403" height="1403" x="12899" y="5999" class="BoundingBox" style="fill:none;stroke:none"/><path id="path468" d="m 14100,7400 -1200,0 0,-1400 2400,0 0,1400 -1200,0 z" style="fill:none;stroke:#3465a4"/></g></g><g id="g470" class="com.sun.star.drawing.CustomShape" transform="translate(-3285.889,-3185.889)"><g id="id28"><rect id="rect473" width="2403" height="1403" x="15299" y="5999" class="BoundingBox" style="fill:none;stroke:none"/><path id="path475" d="m 16500,7400 -1200,0 0,-1400 2400,0 0,1400 -1200,0 z" style="fill:none;stroke:#3465a4"/><text id="text477" class="TextShape"><tspan id="tspan479" class="TextParagraph" font-size="635" font-weight="400" style="font-weight:400;font-size:635px;font-family:sans-serif"><tspan id="tspan481" x="16149" y="6921" class="TextPosition"><tspan id="tspan483" style="fill:#000;stroke:none">21</tspan></tspan></tspan></text></g></g><g id="g485" class="com.sun.star.drawing.CustomShape" transform="translate(-3285.889,-3185.889)"><g id="id29"><rect id="rect488" width="2403" height="1403" x="12899" y="5999" class="BoundingBox" style="fill:none;stroke:none"/><path id="path490" d="m 14100,7400 -1200,0 0,-1400 2400,0 0,1400 -1200,0 z" style="fill:none;stroke:#3465a4"/><text id="text492" class="TextShape"><tspan id="tspan494" class="TextParagraph" font-size="635" font-weight="400" style="font-weight:400;font-size:635px;font-family:sans-serif"><tspan id="tspan496" x="13749" y="6921" class="TextPosition"><tspan id="tspan498" style="fill:#000;stroke:none">20</tspan></tspan></tspan></text></g></g><g id="g500" class="com.sun.star.drawing.CustomShape" transform="translate(-3285.889,-3185.889)"><g id="id30"><rect id="rect503" width="2403" height="1403" x="3299" y="7399" class="BoundingBox" style="fill:none;stroke:none"/><path id="path505" d="m 4500,8800 -1200,0 0,-1400 2400,0 0,1400 -1200,0 z" style="fill:none;stroke:#3465a4"/><text id="text507" class="TextShape"><tspan id="tspan509" class="TextParagraph" font-size="635" font-weight="400" style="font-weight:400;font-size:635px;font-family:sans-serif"><tspan id="tspan511" x="4149" y="8321" class="TextPosition"><tspan id="tspan513" style="fill:#000;stroke:none">14</tspan></tspan></tspan></text></g></g><g id="g515" class="com.sun.star.drawing.CustomShape" transform="translate(-3285.889,-3185.889)"><g id="id31"><rect id="rect518" width="2403" height="1403" x="5699" y="7399" class="BoundingBox" style="fill:none;stroke:none"/><path id="path520" d="m 6900,8800 -1200,0 0,-1400 2400,0 0,1400 -1200,0 z" style="fill:none;stroke:#3465a4"/></g></g><g id="g522" class="com.sun.star.drawing.CustomShape" transform="translate(-3285.889,-3185.889)"><g id="id32"><rect id="rect525" width="2403" height="1403" x="8099" y="7399" class="BoundingBox" style="fill:none;stroke:none"/><path id="path527" d="m 9300,8800 -1200,0 0,-1400 2400,0 0,1400 -1200,0 z" style="fill:none;stroke:#3465a4"/><text id="text529" class="TextShape"><tspan id="tspan531" class="TextParagraph" font-size="635" font-weight="400" style="font-weight:400;font-size:635px;font-family:sans-serif"><tspan id="tspan533" x="8949" y="8321" class="TextPosition"><tspan id="tspan535" style="fill:#000;stroke:none">16</tspan></tspan></tspan></text></g></g><g id="g537" class="com.sun.star.drawing.CustomShape" transform="translate(-3285.889,-3185.889)"><g id="id33"><rect id="rect540" width="2403" height="1403" x="5699" y="7399" class="BoundingBox" style="fill:none;stroke:none"/><path id="path542" d="m 6900,8800 -1200,0 0,-1400 2400,0 0,1400 -1200,0 z" style="fill:none;stroke:#3465a4"/><text id="text544" class="TextShape"><tspan id="tspan546" class="TextParagraph" font-size="635" font-weight="400" style="font-weight:400;font-size:635px;font-family:sans-serif"><tspan id="tspan548" x="6549" y="8321" class="TextPosition"><tspan id="tspan550" style="fill:#000;stroke:none">15</tspan></tspan></tspan></text></g></g><g id="g552" class="com.sun.star.drawing.CustomShape" transform="translate(-3285.889,-3185.889)"><g id="id34"><rect id="rect555" width="2403" height="1403" x="10499" y="7399" class="BoundingBox" style="fill:none;stroke:none"/><path id="path557" d="m 11700,8800 -1200,0 0,-1400 2400,0 0,1400 -1200,0 z" style="fill:none;stroke:#3465a4"/><text id="text559" class="TextShape"><tspan id="tspan561" class="TextParagraph" font-size="635" font-weight="400" style="font-weight:400;font-size:635px;font-family:sans-serif"><tspan id="tspan563" x="11349" y="8321" class="TextPosition"><tspan id="tspan565" style="fill:#000;stroke:none">17</tspan></tspan></tspan></text></g></g><g id="g567" class="com.sun.star.drawing.CustomShape" transform="translate(-3285.889,-3185.889)"><g id="id35"><rect id="rect570" width="2403" height="1403" x="12899" y="7399" class="BoundingBox" style="fill:none;stroke:none"/><path id="path572" d="m 14100,8800 -1200,0 0,-1400 2400,0 0,1400 -1200,0 z" style="fill:none;stroke:#3465a4"/></g></g><g id="g574" class="com.sun.star.drawing.CustomShape" transform="translate(-3285.889,-3185.889)"><g id="id36"><rect id="rect577" width="2403" height="1403" x="15299" y="7399" class="BoundingBox" style="fill:none;stroke:none"/><path id="path579" d="m 16500,8800 -1200,0 0,-1400 2400,0 0,1400 -1200,0 z" style="fill:none;stroke:#3465a4"/><text id="text581" class="TextShape"><tspan id="tspan583" class="TextParagraph" font-size="635" font-weight="400" style="font-weight:400;font-size:635px;font-family:sans-serif"><tspan id="tspan585" x="16149" y="8321" class="TextPosition"><tspan id="tspan587" style="fill:#000;stroke:none">23</tspan></tspan></tspan></text></g></g><g id="g589" class="com.sun.star.drawing.CustomShape" transform="translate(-3285.889,-3185.889)"><g id="id37"><rect id="rect592" width="2403" height="1403" x="12899" y="7399" class="BoundingBox" style="fill:none;stroke:none"/><path id="path594" d="m 14100,8800 -1200,0 0,-1400 2400,0 0,1400 -1200,0 z" style="fill:none;stroke:#3465a4"/><text id="text596" class="TextShape"><tspan id="tspan598" class="TextParagraph" font-size="635" font-weight="400" style="font-weight:400;font-size:635px;font-family:sans-serif"><tspan id="tspan600" x="13749" y="8321" class="TextPosition"><tspan id="tspan602" style="fill:#000;stroke:none">22</tspan></tspan></tspan></text></g></g><g id="g604" class="com.sun.star.drawing.CustomShape" transform="translate(-3285.889,-3185.889)"><g id="id38"><rect id="rect607" width="2403" height="1403" x="3299" y="8799" class="BoundingBox" style="fill:none;stroke:none"/><path id="path609" d="m 4500,10200 -1200,0 0,-1400 2400,0 0,1400 -1200,0 z" style="fill:none;stroke:#3465a4"/><text id="text611" class="TextShape"><tspan id="tspan613" class="TextParagraph" font-size="635" font-weight="400" style="font-weight:400;font-size:635px;font-family:sans-serif"><tspan id="tspan615" x="4149" y="9721" class="TextPosition"><tspan id="tspan617" style="fill:#000;stroke:none">24</tspan></tspan></tspan></text></g></g><g id="g619" class="com.sun.star.drawing.CustomShape" transform="translate(-3285.889,-3185.889)"><g id="id39"><rect id="rect622" width="2403" height="1403" x="5699" y="8799" class="BoundingBox" style="fill:none;stroke:none"/><path id="path624" d="m 6900,10200 -1200,0 0,-1400 2400,0 0,1400 -1200,0 z" style="fill:none;stroke:#3465a4"/></g></g><g id="g626" class="com.sun.star.drawing.CustomShape" transform="translate(-3285.889,-3185.889)"><g id="id40"><rect id="rect629" width="2403" height="1403" x="8099" y="8799" class="BoundingBox" style="fill:none;stroke:none"/><path id="path631" d="m 9300,10200 -1200,0 0,-1400 2400,0 0,1400 -1200,0 z" style="fill:none;stroke:#3465a4"/><text id="text633" class="TextShape"><tspan id="tspan635" class="TextParagraph" font-size="635" font-weight="400" style="font-weight:400;font-size:635px;font-family:sans-serif"><tspan id="tspan637" x="8949" y="9721" class="TextPosition"><tspan id="tspan639" style="fill:#000;stroke:none">26</tspan></tspan></tspan></text></g></g><g id="g641" class="com.sun.star.drawing.CustomShape" transform="translate(-3285.889,-3185.889)"><g id="id41"><rect id="rect644" width="2403" height="1403" x="5699" y="8799" class="BoundingBox" style="fill:none;stroke:none"/><path id="path646" d="m 6900,10200 -1200,0 0,-1400 2400,0 0,1400 -1200,0 z" style="fill:none;stroke:#3465a4"/><text id="text648" class="TextShape"><tspan id="tspan650" class="TextParagraph" font-size="635" font-weight="400" style="font-weight:400;font-size:635px;font-family:sans-serif"><tspan id="tspan652" x="6549" y="9721" class="TextPosition"><tspan id="tspan654" style="fill:#000;stroke:none">25</tspan></tspan></tspan></text></g></g><g id="g656" class="com.sun.star.drawing.CustomShape" transform="translate(-3285.889,-3185.889)"><g id="id42"><rect id="rect659" width="2403" height="1403" x="10499" y="8799" class="BoundingBox" style="fill:none;stroke:none"/><path id="path661" d="m 11700,10200 -1200,0 0,-1400 2400,0 0,1400 -1200,0 z" style="fill:none;stroke:#3465a4"/><text id="text663" class="TextShape"><tspan id="tspan665" class="TextParagraph" font-size="635" font-weight="400" style="font-weight:400;font-size:635px;font-family:sans-serif"><tspan id="tspan667" x="11349" y="9721" class="TextPosition"><tspan id="tspan669" style="fill:#000;stroke:none">27</tspan></tspan></tspan></text></g></g><g id="g671" class="com.sun.star.drawing.CustomShape" transform="translate(-3285.889,-3185.889)"><g id="id43"><rect id="rect674" width="2403" height="1403" x="12899" y="8799" class="BoundingBox" style="fill:none;stroke:none"/><path id="path676" d="m 14100,10200 -1200,0 0,-1400 2400,0 0,1400 -1200,0 z" style="fill:none;stroke:#3465a4"/></g></g><g id="g678" class="com.sun.star.drawing.CustomShape" transform="translate(-3285.889,-3185.889)"><g id="id44"><rect id="rect681" width="2403" height="1403" x="15299" y="8799" class="BoundingBox" style="fill:none;stroke:none"/><path id="path683" d="m 16500,10200 -1200,0 0,-1400 2400,0 0,1400 -1200,0 z" style="fill:none;stroke:#3465a4"/><text id="text685" class="TextShape"><tspan id="tspan687" class="TextParagraph" font-size="635" font-weight="400" style="font-weight:400;font-size:635px;font-family:sans-serif"><tspan id="tspan689" x="16149" y="9721" class="TextPosition"><tspan id="tspan691" style="fill:#000;stroke:none">29</tspan></tspan></tspan></text></g></g><g id="g693" class="com.sun.star.drawing.CustomShape" transform="translate(-3285.889,-3185.889)"><g id="id45"><rect id="rect696" width="2403" height="1403" x="12899" y="8799" class="BoundingBox" style="fill:none;stroke:none"/><path id="path698" d="m 14100,10200 -1200,0 0,-1400 2400,0 0,1400 -1200,0 z" style="fill:none;stroke:#3465a4"/><text id="text700" class="TextShape"><tspan id="tspan702" class="TextParagraph" font-size="635" font-weight="400" style="font-weight:400;font-size:635px;font-family:sans-serif"><tspan id="tspan704" x="13749" y="9721" class="TextPosition"><tspan id="tspan706" style="fill:#000;stroke:none">28</tspan></tspan></tspan></text></g></g><g id="g708" class="com.sun.star.drawing.LineShape" transform="translate(-3285.889,-3185.889)"><g id="id46"><rect id="rect711" width="1402" height="301" x="5199" y="3850" class="BoundingBox" style="fill:none;stroke:none"/><path id="path713" d="m 5200,4000 970,0" style="fill:none;stroke:#f33"/><path id="path715" d="m 6600,4000 -450,-150 0,300 450,-150 z" style="fill:#f33;stroke:none"/></g></g><g id="g717" class="com.sun.star.drawing.LineShape" transform="translate(-3285.889,-3185.889)"><g id="id47"><rect id="rect720" width="1202" height="802" x="5000" y="4299" class="BoundingBox" style="fill:none;stroke:none"/><path id="path722" d="m 6200,4300 -842,561" style="fill:none;stroke:#f33"/><path id="path724" d="m 5000,5100 458,-125 -167,-249 -291,374 z" style="fill:#f33;stroke:none"/></g></g><g id="g726" class="com.sun.star.drawing.LineShape" transform="translate(-3285.889,-3185.889)"><g id="id48"><rect id="rect729" width="1202" height="301" x="5399" y="5250" class="BoundingBox" style="fill:none;stroke:none"/><path id="path731" d="m 5400,5400 770,0" style="fill:none;stroke:#f33"/><path id="path733" d="m 6600,5400 -450,-150 0,300 450,-150 z" style="fill:#f33;stroke:none"/></g></g><g id="g735" class="com.sun.star.drawing.LineShape" transform="translate(-3285.889,-3185.889)"><g id="id49"><rect id="rect738" width="1202" height="301" x="7599" y="5250" class="BoundingBox" style="fill:none;stroke:none"/><path id="path740" d="m 7600,5400 770,0" style="fill:none;stroke:#f33"/><path id="path742" d="m 8800,5400 -450,-150 0,300 450,-150 z" style="fill:#f33;stroke:none"/></g></g><g id="g744" class="com.sun.star.drawing.LineShape" transform="translate(-3285.889,-3185.889)"><g id="id50"><rect id="rect747" width="1402" height="301" x="9799" y="5250" class="BoundingBox" style="fill:none;stroke:none"/><path id="path749" d="m 9800,5400 970,0" style="fill:none;stroke:#f33"/><path id="path751" d="m 11200,5400 -450,-150 0,300 450,-150 z" style="fill:#f33;stroke:none"/></g></g><g id="g753" class="com.sun.star.drawing.LineShape" transform="translate(-3285.889,-3185.889)"><g id="id51"><rect id="rect756" width="1202" height="802" x="9900" y="4200" class="BoundingBox" style="fill:none;stroke:none"/><path id="path758" d="m 11100,5000 -842,-561" style="fill:none;stroke:#f33"/><path id="path760" d="m 9900,4200 291,374 167,-249 -458,-125 z" style="fill:#f33;stroke:none"/></g></g><g id="g762" class="com.sun.star.drawing.LineShape" transform="translate(-3285.889,-3185.889)"><g id="id52"><rect id="rect765" width="1402" height="301" x="9999" y="3850" class="BoundingBox" style="fill:none;stroke:none"/><path id="path767" d="m 10000,4000 970,0" style="fill:none;stroke:#f33"/><path id="path769" d="m 11400,4000 -450,-150 0,300 450,-150 z" style="fill:#f33;stroke:none"/></g></g><g id="g771" class="com.sun.star.drawing.LineShape" transform="translate(-3285.889,-3185.889)"><g id="id53"><rect id="rect774" width="1202" height="301" x="12399" y="3850" class="BoundingBox" style="fill:none;stroke:none"/><path id="path776" d="m 12400,4000 770,0" style="fill:none;stroke:#f33"/><path id="path778" d="m 13600,4000 -450,-150 0,300 450,-150 z" style="fill:#f33;stroke:none"/></g></g><g id="g780" class="com.sun.star.drawing.LineShape" transform="translate(-3285.889,-3185.889)"><g id="id54"><rect id="rect783" width="1202" height="301" x="14799" y="3850" class="BoundingBox" style="fill:none;stroke:none"/><path id="path785" d="m 14800,4000 770,0" style="fill:none;stroke:#f33"/><path id="path787" d="m 16000,4000 -450,-150 0,300 450,-150 z" style="fill:#f33;stroke:none"/></g></g><g id="g789" class="com.sun.star.drawing.LineShape" transform="translate(-3285.889,-3185.889)"><g id="id55"><rect id="rect792" width="1402" height="602" x="14400" y="4399" class="BoundingBox" style="fill:none;stroke:none"/><path id="path794" d="m 15800,4400 -1005,431" style="fill:none;stroke:#f33"/><path id="path796" d="m 14400,5000 473,-39 -118,-276 -355,315 z" style="fill:#f33;stroke:none"/></g></g><g id="g798" class="com.sun.star.drawing.LineShape" transform="translate(-3285.889,-3185.889)"><g id="id56"><rect id="rect801" width="1402" height="301" x="14599" y="5250" class="BoundingBox" style="fill:none;stroke:none"/><path id="path803" d="m 14600,5400 970,0" style="fill:none;stroke:#f33"/><path id="path805" d="m 16000,5400 -450,-150 0,300 450,-150 z" style="fill:#f33;stroke:none"/></g></g><g id="g807" class="com.sun.star.drawing.LineShape" transform="translate(-3285.889,-3185.889)"><g id="id57"><rect id="rect810" width="1402" height="301" x="5199" y="6550" class="BoundingBox" style="fill:none;stroke:none"/><path id="path812" d="m 5200,6700 970,0" style="fill:none;stroke:#f33"/><path id="path814" d="m 6600,6700 -450,-150 0,300 450,-150 z" style="fill:#f33;stroke:none"/></g></g><g id="g816" class="com.sun.star.drawing.LineShape" transform="translate(-3285.889,-3129.4446)"><g id="id58"><rect id="rect819" width="1202" height="802" x="5000" y="6999" class="BoundingBox" style="fill:none;stroke:none"/><path id="path821" d="m 6200,7000 -842,561" style="fill:none;stroke:#f33"/><path id="path823" d="m 5000,7800 458,-125 -167,-249 -291,374 z" style="fill:#f33;stroke:none"/></g></g><g id="g825" class="com.sun.star.drawing.LineShape" transform="translate(-3285.889,-3185.889)"><g id="id59"><rect id="rect828" width="1202" height="301" x="5399" y="7950" class="BoundingBox" style="fill:none;stroke:none"/><path id="path830" d="m 5400,8100 770,0" style="fill:none;stroke:#f33"/><path id="path832" d="m 6600,8100 -450,-150 0,300 450,-150 z" style="fill:#f33;stroke:none"/></g></g><g id="g834" class="com.sun.star.drawing.LineShape" transform="translate(-3285.889,-3185.889)"><g id="id60"><rect id="rect837" width="1202" height="301" x="7599" y="7950" class="BoundingBox" style="fill:none;stroke:none"/><path id="path839" d="m 7600,8100 770,0" style="fill:none;stroke:#f33"/><path id="path841" d="m 8800,8100 -450,-150 0,300 450,-150 z" style="fill:#f33;stroke:none"/></g></g><g id="g843" class="com.sun.star.drawing.LineShape" transform="translate(-3285.889,-3185.889)"><g id="id61"><rect id="rect846" width="1402" height="301" x="9799" y="7950" class="BoundingBox" style="fill:none;stroke:none"/><path id="path848" d="m 9800,8100 970,0" style="fill:none;stroke:#f33"/><path id="path850" d="m 11200,8100 -450,-150 0,300 450,-150 z" style="fill:#f33;stroke:none"/></g></g><g id="g852" class="com.sun.star.drawing.LineShape" transform="translate(-3285.889,-3129.4446)"><g id="id62"><rect id="rect855" width="1202" height="802" x="9900" y="6900" class="BoundingBox" style="fill:none;stroke:none"/><path id="path857" d="m 11100,7700 -842,-561" style="fill:none;stroke:#f33"/><path id="path859" d="m 9900,6900 291,374 167,-249 -458,-125 z" style="fill:#f33;stroke:none"/></g></g><g id="g861" class="com.sun.star.drawing.LineShape" transform="translate(-3285.889,-3185.889)"><g id="id63"><rect id="rect864" width="1402" height="301" x="9999" y="6550" class="BoundingBox" style="fill:none;stroke:none"/><path id="path866" d="m 10000,6700 970,0" style="fill:none;stroke:#f33"/><path id="path868" d="m 11400,6700 -450,-150 0,300 450,-150 z" style="fill:#f33;stroke:none"/></g></g><g id="g870" class="com.sun.star.drawing.LineShape" transform="translate(-3285.889,-3185.889)"><g id="id64"><rect id="rect873" width="1202" height="301" x="12399" y="6550" class="BoundingBox" style="fill:none;stroke:none"/><path id="path875" d="m 12400,6700 770,0" style="fill:none;stroke:#f33"/><path id="path877" d="m 13600,6700 -450,-150 0,300 450,-150 z" style="fill:#f33;stroke:none"/></g></g><g id="g879" class="com.sun.star.drawing.LineShape" transform="translate(-3285.889,-3185.889)"><g id="id65"><rect id="rect882" width="1202" height="301" x="14799" y="6550" class="BoundingBox" style="fill:none;stroke:none"/><path id="path884" d="m 14800,6700 770,0" style="fill:none;stroke:#f33"/><path id="path886" d="m 16000,6700 -450,-150 0,300 450,-150 z" style="fill:#f33;stroke:none"/></g></g><g id="g888" class="com.sun.star.drawing.LineShape" transform="translate(-3285.889,-3129.4446)"><g id="id66"><rect id="rect891" width="1402" height="602" x="14400" y="7099" class="BoundingBox" style="fill:none;stroke:none"/><path id="path893" d="m 15800,7100 -1005,431" style="fill:none;stroke:#f33"/><path id="path895" d="m 14400,7700 473,-39 -118,-276 -355,315 z" style="fill:#f33;stroke:none"/></g></g><g id="g897" class="com.sun.star.drawing.LineShape" transform="translate(-3285.889,-3185.889)"><g id="id67"><rect id="rect900" width="1402" height="301" x="14599" y="7950" class="BoundingBox" style="fill:none;stroke:none"/><path id="path902" d="m 14600,8100 970,0" style="fill:none;stroke:#f33"/><path id="path904" d="m 16000,8100 -450,-150 0,300 450,-150 z" style="fill:#f33;stroke:none"/></g></g><g id="g906" class="com.sun.star.drawing.LineShape" transform="translate(-3285.889,-3185.889)"><g id="id68"><rect id="rect909" width="1202" height="301" x="5399" y="9450" class="BoundingBox" style="fill:none;stroke:none"/><path id="path911" d="m 5400,9600 770,0" style="fill:none;stroke:#f33"/><path id="path913" d="m 6600,9600 -450,-150 0,300 450,-150 z" style="fill:#f33;stroke:none"/></g></g><g id="g915" class="com.sun.star.drawing.LineShape" transform="translate(-3285.889,-3185.889)"><g id="id69"><rect id="rect918" width="1202" height="301" x="7599" y="9450" class="BoundingBox" style="fill:none;stroke:none"/><path id="path920" d="m 7600,9600 770,0" style="fill:none;stroke:#f33"/><path id="path922" d="m 8800,9600 -450,-150 0,300 450,-150 z" style="fill:#f33;stroke:none"/></g></g><g id="g924" class="com.sun.star.drawing.LineShape" transform="translate(-3285.889,-3185.889)"><g id="id70"><rect id="rect927" width="1202" height="301" x="9999" y="9450" class="BoundingBox" style="fill:none;stroke:none"/><path id="path929" d="m 10000,9600 770,0" style="fill:none;stroke:#f33"/><path id="path931" d="m 11200,9600 -450,-150 0,300 450,-150 z" style="fill:#f33;stroke:none"/></g></g><g id="g933" class="com.sun.star.drawing.LineShape" transform="translate(-3285.889,-3185.889)"><g id="id71"><rect id="rect936" width="1202" height="301" x="12399" y="9450" class="BoundingBox" style="fill:none;stroke:none"/><path id="path938" d="m 12400,9600 770,0" style="fill:none;stroke:#f33"/><path id="path940" d="m 13600,9600 -450,-150 0,300 450,-150 z" style="fill:#f33;stroke:none"/></g></g><g id="g942" class="com.sun.star.drawing.LineShape" transform="translate(-3285.889,-3185.889)"><g id="id72"><rect id="rect945" width="1202" height="301" x="14799" y="9450" class="BoundingBox" style="fill:none;stroke:none"/><path id="path947" d="m 14800,9600 770,0" style="fill:none;stroke:#f33"/><path id="path949" d="m 16000,9600 -450,-150 0,300 450,-150 z" style="fill:#f33;stroke:none"/></g></g></svg>