<svg xmlns="http://www.w3.org/2000/svg" id="svg2" width="598.942" height="318.187" fill-rule="evenodd" stroke-linejoin="round" stroke-width="28.222" preserveAspectRatio="xMidYMid" version="1.2" viewBox="0 0 23770.123 12628.122" xml:space="preserve"><defs id="defs142"><marker id="Arrow1Lend" orient="auto" overflow="visible"><path id="path954" fill-rule="evenodd" stroke="#000" stroke-width="1pt" d="m0 0 5-5-17.5 5 17.5 5z" transform="matrix(-.8 0 0 -.8 -10 0)"/></marker><marker id="marker1243" orient="auto" overflow="visible"><path id="path1241" fill-rule="evenodd" stroke="#000" stroke-width="1pt" d="m0 0 5-5-17.5 5 17.5 5z" transform="matrix(-.8 0 0 -.8 -10 0)"/></marker></defs><metadata id="metadata519"/><rect id="rect197" width="18403" height="9603" x="5355.1" y="13.122" fill="none" class="BoundingBox"/><path id="path199" fill="#fff" d="m14556 9614.1h-9200v-9600h18400v9600z"/><path id="path201" fill="none" stroke="#000" d="m14556 9614.1h-9200v-9600h18400v9600z"/><rect id="rect206" width="4544" height="2403" x="13.122" y="4013.1" fill="none" class="BoundingBox"/><path id="path208" fill="#fff" d="m2285.1 6414.1h-2271v-2400h4541v2400z"/><path id="path210" fill="none" stroke="#000" d="m2285.1 6414.1h-2271v-2400h4541v2400z"/><text id="text212" x="-2443.878" y="-4585.878" class="TextShape"><tspan id="tspan214" class="TextParagraph" font-family="sans-serif" font-size="635" font-weight="400"><tspan id="tspan216" x="1281.122" y="5435.122" class="TextPosition"><tspan id="tspan218" fill="#000">Antena</tspan></tspan></tspan></text><rect id="rect223" width="4544" height="2403" x="6213.1" y="1813.1" fill="none" class="BoundingBox"/><path id="path225" fill="#fff" d="m8485.1 4214.1h-2271v-2400h4541v2400z"/><path id="path227" fill="none" stroke="#000" d="m8485.1 4214.1h-2271v-2400h4541v2400z"/><text id="text229" x="-2443.878" y="-4585.878" class="TextShape"><tspan id="tspan231" class="TextParagraph" font-family="sans-serif" font-size="635" font-weight="400"><tspan id="tspan233" x="7217.122" y="3235.122" class="TextPosition"><tspan id="tspan235" fill="#000">Frontend</tspan></tspan></tspan></text><rect id="rect240" width="4544" height="2403" x="12113" y="1813.1" fill="none" class="BoundingBox"/><path id="path242" fill="#fff" d="m14385 4214.1h-2271v-2400h4541v2400z"/><path id="path244" fill="none" stroke="#000" d="m14385 4214.1h-2271v-2400h4541v2400z"/><text id="text246" x="-2443.878" y="-4585.878" class="TextShape"><tspan id="tspan248" class="TextParagraph" font-family="sans-serif" font-size="635" font-weight="400"><tspan id="tspan250" x="13944.122" y="3235.122" class="TextPosition"><tspan id="tspan252" fill="#000">CA</tspan></tspan></tspan></text><rect id="rect257" width="4544" height="2403" x="18113" y="1813.1" fill="none" class="BoundingBox"/><path id="path259" fill="#fff" d="m20385 4214.1h-2271v-2400h4541v2400z"/><path id="path261" fill="none" stroke="#000" d="m20385 4214.1h-2271v-2400h4541v2400z"/><text id="text263" x="-2443.878" y="-4585.878" class="TextShape"><tspan id="tspan265" class="TextParagraph" font-family="sans-serif" font-size="635" font-weight="400"><tspan id="tspan267" x="19384.123" y="3235.122" class="TextPosition"><tspan id="tspan269" fill="#000">Demux</tspan></tspan></tspan></text><rect id="rect274" width="4544" height="2403" x="6113.1" y="5813.1" fill="none" class="BoundingBox"/><path id="path276" fill="#fff" d="m8385.1 8214.1h-2271v-2400h4541v2400z"/><path id="path278" fill="none" stroke="#000" d="m8385.1 8214.1h-2271v-2400h4541v2400z"/><text id="text280" x="-2443.878" y="-4585.878" class="TextShape"><tspan id="tspan282" class="TextParagraph" font-family="sans-serif" font-size="635" font-weight="400"><tspan id="tspan284" x="7733.122" y="7235.122" class="TextPosition"><tspan id="tspan286" fill="#000">SEC</tspan></tspan></tspan></text><rect id="rect291" width="4544" height="2403" x="12213" y="5813.1" fill="none" class="BoundingBox"/><path id="path293" fill="#fff" d="m14485 8214.1h-2271v-2400h4541v2400z"/><path id="path295" fill="none" stroke="#000" stroke-dasharray="28.222 56.444" stroke-width="28.222" d="m14485 8214.1h-2271v-2400h4541v2400z"/><text id="text297" x="-2443.878" y="-4903.378" class="TextShape"><tspan id="tspan299" class="TextParagraph" font-family="sans-serif" font-size="635" font-weight="400"><tspan id="tspan301" x="13676.122" y="6917.622" class="TextPosition"><tspan id="tspan303" fill="#000">Audio</tspan></tspan></tspan></text><rect id="rect308" width="4544" height="2403" x="18113" y="5813.1" fill="none" class="BoundingBox"/><path id="path310" fill="#fff" d="m20385 8214.1h-2271v-2400h4541v2400z"/><path id="path312" fill="none" stroke="#000" stroke-dasharray="28.222 56.444" stroke-width="28.222" d="m20385 8214.1h-2271v-2400h4541v2400z"/><text id="text314" x="-2443.878" y="-4903.378" class="TextShape"><tspan id="tspan316" class="TextParagraph" font-family="sans-serif" font-size="635" font-weight="400"><tspan id="tspan318" x="19583.123" y="6917.622" class="TextPosition"><tspan id="tspan320" fill="#000">Video</tspan></tspan></tspan></text><rect id="rect325" width="4544" height="2403" x="15213" y="10213" fill="none" class="BoundingBox"/><path id="path327" fill="#fff" d="m17485 12614h-2271v-2400h4541v2400z"/><path id="path329" fill="none" stroke="#000" stroke-dasharray="28.222 56.444" stroke-width="28.222" d="m17485 12614h-2271v-2400h4541v2400z"/><text id="text331" x="-2443.878" y="-4585.878" class="TextShape"><tspan id="tspan333" class="TextParagraph" font-family="sans-serif" font-size="635" font-weight="400"><tspan id="tspan335" x="17076.123" y="11635.122" class="TextPosition"><tspan id="tspan337" fill="#000">TV</tspan></tspan></tspan></text><rect id="rect342" width="1661" height="2202" x="4555.1" y="3014.1" fill="none" class="BoundingBox"/><path id="path344" fill="none" stroke="#000" d="m4556.1 5214.1 1400-1857"/><path id="path346" d="m6215.1 3014.1-391 269 240 181z"/><rect id="rect351" width="1561" height="1802" x="4555.1" y="5213.1" fill="none" class="BoundingBox"/><path id="path353" fill="none" stroke="#000" d="m4556.1 5214.1 1277 1475"/><path id="path355" d="m6115.1 7014.1-181-438-227 196z"/><rect id="rect360" width="1361" height="301" x="10755" y="2864.1" fill="none" class="BoundingBox"/><path id="path362" fill="none" stroke="#000" d="m10756 3014.1h929"/><path id="path364" d="m12115 3014.1-450-150v300z"/><rect id="rect369" width="1461" height="301" x="16655" y="2864.1" fill="none" class="BoundingBox"/><path id="path371" fill="none" stroke="#000" d="m16656 3014.1h1029"/><path id="path373" d="m18115 3014.1-450-150v300z"/><rect id="rect378" width="301" height="1602" x="20235" y="4213.1" fill="none" class="BoundingBox"/><rect id="rect387" width="2902" height="2002" x="17485" y="8213.1" fill="none" class="BoundingBox"/><path id="path389" fill="none" stroke="#000" stroke-dasharray="28.222 56.444" stroke-width="28.222" d="m20385 8214.1-2546 1756"/><path id="path391" d="m17485 10214 456-132-171-247z"/><rect id="rect396" width="3002" height="2002" x="14484" y="8213.1" fill="none" class="BoundingBox"/><path id="path398" fill="none" stroke="#000" stroke-dasharray="28.222 56.444" stroke-width="28.222" d="m14485 8214.1 2642 1761"/><path id="path400" d="m17485 10214-291-374-167 249z"/><rect id="rect405" width="5902" height="1629" x="14485" y="4213.1" fill="none" class="BoundingBox"/><path id="path949" fill="none" stroke="#000" stroke-dasharray="26.459 52.918" stroke-linejoin="miter" stroke-width="26.459" marker-end="url(#Arrow1Lend)" d="m20387 4213.1v1629"/><path id="path1233" fill="none" stroke="#000" stroke-dasharray="26.459 52.918" stroke-linejoin="miter" stroke-width="26.459" marker-end="url(#marker1243)" d="m20385 4214.1-3628 1599"/><text id="text297-3" x="-2911.92" y="-4257.206" stroke-width="1" class="TextShape" font-size="12"><tspan id="tspan299-6" stroke-width="1" class="TextParagraph" font-family="sans-serif" font-size="635" font-weight="400"><tspan id="tspan301-7" x="13208.079" y="7563.793" stroke-width="1" class="TextPosition"><tspan id="tspan303-5" fill="#000" stroke-width="1">Decoder</tspan></tspan></tspan></text><text id="text297-3-3" x="2950.929" y="-4259.593" stroke-width="1" class="TextShape" font-size="12"><tspan id="tspan299-6-5" stroke-width="1" class="TextParagraph" font-family="sans-serif" font-size="635" font-weight="400"><tspan id="tspan301-7-6" x="19070.928" y="7561.405" stroke-width="1" class="TextPosition"><tspan id="tspan303-5-2" fill="#000" stroke-width="1">Decoder</tspan></tspan></tspan></text></svg>