<svg xmlns="http://www.w3.org/2000/svg" xmlns:svg="http://www.w3.org/2000/svg" id="svg2" width="710.4" height="758.4" version="1.1" viewBox="-44 -44 8938 9526.283"><metadata id="metadata212"/><defs id="defs210"><marker id="marker1177" orient="auto" refX="0" refY="0" style="overflow:visible"><path id="path897" d="M 0,0 5,-5 -12.5,0 5,5 Z" transform="matrix(-0.4,0,0,-0.4,-4,0)" style="fill:#000;fill-opacity:1;fill-rule:evenodd;stroke:#000;stroke-width:1.00000003pt;stroke-opacity:1"/></marker><marker id="Arrow1Lend" orient="auto" refX="0" refY="0" style="overflow:visible"><path id="path891" d="M 0,0 5,-5 -12.5,0 5,5 Z" transform="matrix(-0.8,0,0,-0.8,-10,0)" style="fill:#000;fill-opacity:1;fill-rule:evenodd;stroke:#000;stroke-width:1.00000003pt;stroke-opacity:1"/></marker><marker id="Arrow1Mend" orient="auto" refX="0" refY="0" style="overflow:visible"><path id="path3970" d="M 0,0 5,-5 -12.5,0 5,5 Z" transform="matrix(-0.4,0,0,-0.4,-4,0)" style="fill-rule:evenodd;stroke:#000;stroke-width:1.00000003pt"/></marker></defs><g style="fill:none;stroke-width:.025in" id="g4" transform="translate(0,-2415.6743)"><polyline style="stroke:#0f0;stroke-width:14;stroke-miterlimit:8" id="polyline20" points="5714 6518 5704 6272 5598 6494" transform="matrix(1,0,0,0.95854605,12.340758,1579.9033)"/><polyline style="stroke:#0f0;stroke-width:14;stroke-miterlimit:8" id="polyline24" points="4514 7868 4506 7622 4396 7844" transform="matrix(1,0,0,0.95854605,12.340758,1579.9033)"/><polyline style="stroke:#0f0;stroke-width:14;stroke-miterlimit:8" id="polyline28" points="1504 7868 1496 7622 1386 7844" transform="matrix(1,0,0,0.95854605,12.340758,1579.9033)"/><polyline style="stroke:#0f0;stroke-width:14;stroke-miterlimit:8" id="polyline32" points="2704 6668 2696 6422 2586 6644" transform="matrix(1,0,0,0.95854605,12.340758,1579.9033)"/><polyline style="stroke:#0f0;stroke-width:14;stroke-miterlimit:8" id="polyline36" points="5682 6220 5730 5978 5574 6170" transform="matrix(1,0,0,0.95854605,12.340758,1579.9033)"/><polyline style="stroke:#0f0;stroke-width:14;stroke-miterlimit:8" id="polyline40" points="2718 6220 2766 5978 2610 6170" transform="matrix(1,0,0,0.95854605,12.340758,1579.9033)"/><rect style="fill:#fff;stroke:#000;stroke-width:29.37160873;stroke-linecap:butt;stroke-linejoin:miter" id="rect42" width="6300" height="7045.314" x="12.341" y="2442.595" rx="0"/><rect style="fill:#ff0;stroke:#000;stroke-width:29.37160873;stroke-linecap:butt;stroke-linejoin:miter" id="rect44" width="5700" height="3594.548" x="312.341" y="3017.722" rx="0"/><polyline style="stroke:#00d1d1;stroke-width:29.99464035;stroke-linecap:butt;stroke-linejoin:miter;stroke-miterlimit:4;stroke-dasharray:none;marker-end:url(#Arrow1Mend)" id="polyline46" points="1350 3900 2350 3040" transform="matrix(1,0,0,0.95854605,12.340758,1579.9033)"/><polyline style="stroke:#00d1d1;stroke-width:29.99464035;stroke-linecap:butt;stroke-linejoin:miter;stroke-miterlimit:4;stroke-dasharray:none;marker-end:url(#Arrow1Mend)" id="polyline50" points="4950 3900 3948 3040" transform="matrix(1,0,0,0.95854605,12.340758,1579.9033)"/><polyline style="stroke:#00d1d1;stroke-width:29.99464035;stroke-linecap:butt;stroke-linejoin:miter;stroke-miterlimit:4;stroke-dasharray:none;marker-end:url(#Arrow1Mend)" id="polyline54" points="4050 7050 4050 4864" transform="matrix(1,0,0,0.95854605,12.340758,1579.9033)"/><polyline style="stroke:#00d1d1;stroke-width:29.99464035;stroke-linecap:butt;stroke-linejoin:miter;stroke-miterlimit:4;stroke-dasharray:none;marker-end:url(#Arrow1Mend)" id="polyline58" points="1050 7050 1050 4864" transform="matrix(1,0,0,0.95854605,12.340758,1579.9033)"/><polyline style="stroke:#00d1d1;stroke-width:29.99464035;stroke-linecap:butt;stroke-linejoin:miter;stroke-miterlimit:4;stroke-dasharray:none;marker-end:url(#Arrow1Mend)" id="polyline62" points="2250 5850 2250 4864" transform="matrix(1,0,0,0.95854605,12.340758,1579.9033)"/><ellipse style="fill:#000;stroke:#000;stroke-width:13.70675087" id="circle86" cx="2862.341" cy="5749.579" rx="76" ry="72.849"/><ellipse style="fill:#000;stroke:#000;stroke-width:13.70675087" id="circle88" cx="3162.341" cy="5749.579" rx="76" ry="72.849"/><ellipse style="fill:#000;stroke:#000;stroke-width:13.70675087" id="circle90" cx="3462.341" cy="5749.579" rx="76" ry="72.849"/><ellipse style="fill:#000;stroke:#000;stroke-width:13.70675087" id="circle92" cx="1362.341" cy="6899.834" rx="76" ry="72.849"/><ellipse style="fill:#000;stroke:#000;stroke-width:13.70675087" id="circle94" cx="1662.341" cy="6899.834" rx="76" ry="72.849"/><ellipse style="fill:#000;stroke:#000;stroke-width:13.70675087" id="circle96" cx="1962.341" cy="6899.834" rx="76" ry="72.849"/><ellipse style="fill:#000;stroke:#000;stroke-width:13.70675087" id="circle98" cx="4362.341" cy="6899.834" rx="76" ry="72.849"/><ellipse style="fill:#000;stroke:#000;stroke-width:13.70675087" id="circle100" cx="4662.341" cy="6899.834" rx="76" ry="72.849"/><ellipse style="fill:#000;stroke:#000;stroke-width:13.70675087" id="circle102" cx="4962.341" cy="6899.834" rx="76" ry="72.849"/><rect style="stroke:#000;stroke-width:29.37160873;stroke-linecap:butt;stroke-linejoin:miter" id="rect104" width="1500" height="862.691" x="6745.303" y="8146.065" rx="0"/><rect style="stroke:#000;stroke-width:29.37160873;stroke-linecap:butt;stroke-linejoin:miter" id="rect106" width="1500" height="862.691" x="6745.303" y="9583.886" rx="0"/><polyline style="stroke:#000;stroke-width:30;stroke-linecap:butt;stroke-linejoin:miter;marker-end:url(#Arrow1Mend)" id="polyline108" points="8100 8850 8100 9384" transform="matrix(1,0,0,0.95854605,-604.69715,525.62477)"/><rect style="stroke:#000;stroke-width:29.37160873;stroke-linecap:butt;stroke-linejoin:miter" id="rect112" width="1500" height="862.691" x="6745.303" y="11021.704" rx="0"/><polyline style="stroke:#000;stroke-width:30;stroke-linecap:butt;stroke-linejoin:miter;marker-end:url(#Arrow1Mend)" id="polyline114" points="8100 10350 8100 10884" transform="matrix(1,0,0,0.95854605,-604.69715,525.62477)"/><rect style="fill:#ffbfbf;stroke:#000;stroke-width:29.37160873;stroke-linecap:butt;stroke-linejoin:miter" id="rect118" width="1800" height="862.691" x="762.341" y="5318.232" rx="0"/><rect style="fill:#87cfff;stroke:#000;stroke-width:29.37160873;stroke-linecap:butt;stroke-linejoin:miter" id="rect120" width="1500" height="862.691" x="312.341" y="8337.653" rx="0"/><rect style="fill:#ffbfbf;stroke:#000;stroke-width:29.37160873;stroke-linecap:butt;stroke-linejoin:miter" id="rect122" width="1800" height="862.691" x="3762.341" y="5318.232" rx="0"/><rect style="fill:#87cfff;stroke:#000;stroke-width:29.37160873;stroke-linecap:butt;stroke-linejoin:miter" id="rect124" width="1500" height="862.691" x="4512.341" y="7187.398" rx="0"/><rect style="fill:#87cfff;stroke:#000;stroke-width:29.37160873;stroke-linecap:butt;stroke-linejoin:miter" id="rect126" width="1500" height="862.691" x="3312.341" y="8337.653" rx="0"/><rect style="fill:#ffbfbf;stroke:#000;stroke-width:29.37160873;stroke-linecap:butt;stroke-linejoin:miter" id="rect128" width="1800" height="862.691" x="2262.341" y="3592.85" rx="0"/><rect style="fill:#87cfff;stroke:#000;stroke-width:29.37160873;stroke-linecap:butt;stroke-linejoin:miter" id="rect138" width="1500" height="862.691" x="1512.341" y="7187.398" rx="0"/><text id="text140" x="7338.304" y="8614.063" font-size="192" font-style="normal" font-weight="bold" transform="scale(1.0213945,0.97905363)" xml:space="preserve" style="font-style:normal;font-weight:700;font-size:187.978302px;font-family:Courier;text-anchor:middle;fill:#000;stroke-width:.02447634in">struct</text><text id="text142" x="7338.304" y="8907.778" font-size="192" font-style="normal" font-weight="bold" transform="scale(1.0213945,0.97905363)" xml:space="preserve" style="font-style:normal;font-weight:700;font-size:187.978302px;font-family:Courier;text-anchor:middle;fill:#000;stroke-width:.02447634in">rcu_head</text><text id="text144" x="7338.304" y="10082.644" font-size="192" font-style="normal" font-weight="bold" transform="scale(1.0213945,0.97905363)" xml:space="preserve" style="font-style:normal;font-weight:700;font-size:187.978302px;font-family:Courier;text-anchor:middle;fill:#000;stroke-width:.02447634in">struct</text><text id="text146" x="7338.304" y="10376.36" font-size="192" font-style="normal" font-weight="bold" transform="scale(1.0213945,0.97905363)" xml:space="preserve" style="font-style:normal;font-weight:700;font-size:187.978302px;font-family:Courier;text-anchor:middle;fill:#000;stroke-width:.02447634in">rcu_head</text><text id="text148" x="7338.304" y="11551.224" font-size="192" font-style="normal" font-weight="bold" transform="scale(1.0213945,0.97905363)" xml:space="preserve" style="font-style:normal;font-weight:700;font-size:187.978302px;font-family:Courier;text-anchor:middle;fill:#000;stroke-width:.02447634in">struct</text><text id="text150" x="7338.304" y="11844.94" font-size="192" font-style="normal" font-weight="bold" transform="scale(1.0213945,0.97905363)" xml:space="preserve" style="font-style:normal;font-weight:700;font-size:187.978302px;font-family:Courier;text-anchor:middle;fill:#000;stroke-width:.02447634in">rcu_head</text><text id="text152" x="5886.404" y="2788.569" font-size="192" font-style="normal" font-weight="normal" transform="scale(1.0213945,0.97905363)" xml:space="preserve" style="font-style:normal;font-weight:400;font-size:187.978302px;font-family:Helvetica;text-anchor:end;fill:#000;stroke-width:.02447634in">rcu_state</text><text id="text156" x="3096.102" y="3963.434" font-size="192" font-style="normal" font-weight="bold" transform="scale(1.0213945,0.97905363)" xml:space="preserve" style="font-style:normal;font-weight:700;font-size:187.978302px;font-family:Courier;text-anchor:middle;fill:#000;stroke-width:.02447634in">struct</text><text id="text158" x="3096.102" y="4257.149" font-size="192" font-style="normal" font-weight="bold" transform="scale(1.0213945,0.97905363)" xml:space="preserve" style="font-style:normal;font-weight:700;font-size:187.978302px;font-family:Courier;text-anchor:middle;fill:#000;stroke-width:.02447634in">rcu_node</text><text id="text160" x="1627.521" y="5725.73" font-size="192" font-style="normal" font-weight="bold" transform="scale(1.0213945,0.97905363)" xml:space="preserve" style="font-style:normal;font-weight:700;font-size:187.978302px;font-family:Courier;text-anchor:middle;fill:#000;stroke-width:.02447634in">struct</text><text id="text162" x="1627.521" y="6019.446" font-size="192" font-style="normal" font-weight="bold" transform="scale(1.0213945,0.97905363)" xml:space="preserve" style="font-style:normal;font-weight:700;font-size:187.978302px;font-family:Courier;text-anchor:middle;fill:#000;stroke-width:.02447634in">rcu_node</text><text id="text164" x="4564.682" y="6019.446" font-size="192" font-style="normal" font-weight="bold" transform="scale(1.0213945,0.97905363)" xml:space="preserve" style="font-style:normal;font-weight:700;font-size:187.978302px;font-family:Courier;text-anchor:middle;fill:#000;stroke-width:.02447634in">rcu_node</text><text id="text166" x="4564.682" y="5725.73" font-size="192" font-style="normal" font-weight="bold" transform="scale(1.0213945,0.97905363)" xml:space="preserve" style="font-style:normal;font-weight:700;font-size:187.978302px;font-family:Courier;text-anchor:middle;fill:#000;stroke-width:.02447634in">struct</text><text id="text168" x="2214.953" y="7634.885" font-size="192" font-style="normal" font-weight="bold" transform="scale(1.0213945,0.97905363)" xml:space="preserve" style="font-style:normal;font-weight:700;font-size:187.978302px;font-family:Courier;text-anchor:middle;fill:#000;stroke-width:.02447634in">struct</text><text id="text170" x="2214.953" y="7928.601" font-size="192" font-style="normal" font-weight="bold" transform="scale(1.0213945,0.97905363)" xml:space="preserve" style="font-style:normal;font-weight:700;font-size:187.978302px;font-family:Courier;text-anchor:middle;fill:#000;stroke-width:.02447634in">rcu_data</text><text id="text172" x="1040.089" y="8809.749" font-size="192" font-style="normal" font-weight="bold" transform="scale(1.0213945,0.97905363)" xml:space="preserve" style="font-style:normal;font-weight:700;font-size:187.978302px;font-family:Courier;text-anchor:middle;fill:#000;stroke-width:.02447634in">struct</text><text id="text174" x="1040.089" y="9103.465" font-size="192" font-style="normal" font-weight="bold" transform="scale(1.0213945,0.97905363)" xml:space="preserve" style="font-style:normal;font-weight:700;font-size:187.978302px;font-family:Courier;text-anchor:middle;fill:#000;stroke-width:.02447634in">rcu_data</text><text id="text176" x="5152.114" y="7634.885" font-size="192" font-style="normal" font-weight="bold" transform="scale(1.0213945,0.97905363)" xml:space="preserve" style="font-style:normal;font-weight:700;font-size:187.978302px;font-family:Courier;text-anchor:middle;fill:#000;stroke-width:.02447634in">struct</text><text id="text178" x="5152.114" y="7928.601" font-size="192" font-style="normal" font-weight="bold" transform="scale(1.0213945,0.97905363)" xml:space="preserve" style="font-style:normal;font-weight:700;font-size:187.978302px;font-family:Courier;text-anchor:middle;fill:#000;stroke-width:.02447634in">rcu_data</text><text id="text180" x="3977.249" y="8809.749" font-size="192" font-style="normal" font-weight="bold" transform="scale(1.0213945,0.97905363)" xml:space="preserve" style="font-style:normal;font-weight:700;font-size:187.978302px;font-family:Courier;text-anchor:middle;fill:#000;stroke-width:.02447634in">struct</text><text id="text182" x="3977.249" y="9103.465" font-size="192" font-style="normal" font-weight="bold" transform="scale(1.0213945,0.97905363)" xml:space="preserve" style="font-style:normal;font-weight:700;font-size:187.978302px;font-family:Courier;text-anchor:middle;fill:#000;stroke-width:.02447634in">rcu_data</text><text id="text184" x="452.656" y="3376.001" font-size="192" font-style="normal" font-weight="bold" transform="scale(1.0213945,0.97905363)" xml:space="preserve" style="font-style:normal;font-weight:700;font-size:187.978302px;font-family:Courier;text-anchor:start;fill:#000;stroke-width:.02447634in">struct rcu_state</text><polyline style="stroke:#00d1d1;stroke-width:29.99464035;stroke-linecap:butt;stroke-linejoin:miter;stroke-miterlimit:4;stroke-dasharray:none;marker-end:url(#Arrow1Mend)" id="polyline204" points="5250 5850 5250 4864" transform="matrix(1,0,0,0.95854605,12.340758,1579.9033)"/><path style="fill:none;stroke:#000;stroke-width:34.24744034;stroke-linecap:butt;stroke-linejoin:miter;stroke-miterlimit:4;stroke-dasharray:none;stroke-opacity:1;marker-end:url(#marker1177)" id="path886" d="m 6000.1472,7564.2558 c 1498.5508,0 1498.5508,0 1498.5508,0 v 520.0252"/></g></svg>