<svg xmlns="http://www.w3.org/2000/svg" xmlns:svg="http://www.w3.org/2000/svg" id="svg2" width="3.1in" height="1.8in" version="1.1" viewBox="-12 -12 3699 2124"><metadata id="metadata98"/><defs id="defs96"><marker id="Arrow2Lend" orient="auto" refX="0" refY="0" style="overflow:visible"><path id="path3868" d="M 8.7185878,4.0337352 L -2.2072895,0.016013256 L 8.7185884,-4.0017078 C 6.9730900,-1.6296469 6.9831476,1.6157441 8.7185878,4.0337352 z" transform="scale(1.1) rotate(180) translate(1,0)" style="fill-rule:evenodd;stroke-width:.625;stroke-linejoin:round"/></marker></defs><g style="stroke-width:.025in;fill:none" id="g4"><rect style="stroke:#000;stroke-width:7;stroke-linejoin:miter;stroke-linecap:butt;fill:#ff0" id="rect6" width="3675" height="2100" x="0" y="0" rx="0"/><rect style="stroke:#000;stroke-width:7;stroke-linejoin:miter;stroke-linecap:butt;fill:#ffbfbf" id="rect8" width="750" height="225" x="75" y="1350" rx="0"/><rect style="stroke:#000;stroke-width:7;stroke-linejoin:miter;stroke-linecap:butt;fill:#ffbfbf" id="rect10" width="750" height="225" x="75" y="1575" rx="0"/><rect style="stroke:#000;stroke-width:7;stroke-linejoin:miter;stroke-linecap:butt;fill:#ffbfbf" id="rect12" width="750" height="225" x="75" y="1800" rx="0"/><path style="stroke:#000;stroke-width:7;stroke-linecap:butt" id="path14" d="M 1800,900 A 118 118 0 0 0 1800 1125"/><path style="stroke:#000;stroke-width:7;stroke-linecap:butt" id="path16" d="M 750,900 A 75 75 0 0 0 750 1050"/><polyline style="stroke:#000;stroke-width:7.00025806;stroke-linejoin:miter;stroke-linecap:butt;stroke-miterlimit:4;stroke-dasharray:none;marker-end:url(#Arrow2Lend)" id="polyline18" points="750 900 750 691"/><rect style="stroke:#000;stroke-width:7;stroke-linejoin:miter;stroke-linecap:butt;fill:#ffbfbf" id="rect22" width="375" height="300" x="75" y="375" rx="0"/><rect style="stroke:#000;stroke-width:7;stroke-linejoin:miter;stroke-linecap:butt;fill:#ffbfbf" id="rect24" width="375" height="300" x="600" y="375" rx="0"/><rect style="stroke:#000;stroke-width:7;stroke-linejoin:miter;stroke-linecap:butt;fill:#ffbfbf" id="rect26" width="375" height="300" x="1650" y="375" rx="0"/><rect style="stroke:#000;stroke-width:7;stroke-linejoin:miter;stroke-linecap:butt;fill:#ffbfbf" id="rect28" width="375" height="300" x="2175" y="375" rx="0"/><rect style="stroke:#000;stroke-width:7;stroke-linejoin:miter;stroke-linecap:butt;fill:#ffbfbf" id="rect30" width="375" height="300" x="3225" y="375" rx="0"/><polyline style="stroke:#000;stroke-width:7.00025806;stroke-linejoin:miter;stroke-linecap:butt;stroke-miterlimit:4;stroke-dasharray:none;marker-end:url(#Arrow2Lend)" id="polyline32" points="675 375 675 150 300 150 300 358"/><polyline style="stroke:#000;stroke-width:7.00025806;stroke-linejoin:miter;stroke-linecap:butt;stroke-miterlimit:4;stroke-dasharray:none;marker-end:url(#Arrow2Lend)" id="polyline36" points="1725 375 1725 150 900 150 900 358"/><polyline style="stroke:#000;stroke-width:7.00025806;stroke-linejoin:miter;stroke-linecap:butt;stroke-miterlimit:4;stroke-dasharray:none;marker-end:url(#Arrow2Lend)" id="polyline40" points="2250 375 2250 75 825 75 825 358"/><polyline style="stroke:#000;stroke-width:7.00025806;stroke-linejoin:miter;stroke-linecap:butt;stroke-miterlimit:4;stroke-dasharray:none;marker-end:url(#Arrow2Lend)" id="polyline44" points="2775 675 2775 975 1425 975 1425 691"/><rect style="stroke:#000;stroke-width:7;stroke-linejoin:miter;stroke-linecap:butt;fill:#ffbfbf" id="rect48" width="375" height="300" x="2700" y="375" rx="0"/><rect style="stroke:#000;stroke-width:7;stroke-linejoin:miter;stroke-linecap:butt;fill:#ffbfbf" id="rect50" width="375" height="300" x="1125" y="375" rx="0"/><polyline style="stroke:#000;stroke-width:7.00025806;stroke-linejoin:miter;stroke-linecap:butt;stroke-miterlimit:4;stroke-dasharray:none;marker-end:url(#Arrow2Lend)" id="polyline52" points="3300 675 3300 1050 1350 1050 1350 691"/><polyline style="stroke:#000;stroke-width:7.00025806;stroke-linejoin:miter;stroke-linecap:butt;stroke-miterlimit:4;stroke-dasharray:none;marker-end:url(#Arrow2Lend)" id="polyline56" points="825 1425 975 1425 975 1200 225 1200 225 691"/><polyline style="stroke:#000;stroke-width:7.00025806;stroke-linejoin:miter;stroke-linecap:butt;stroke-miterlimit:4;stroke-dasharray:none;marker-end:url(#Arrow2Lend)" id="polyline60" points="1200 675 1200 975 300 975 300 691"/><text id="text64" x="150" y="1500" fill="#000" font-family="Helvetica" font-size="108" font-style="normal" font-weight="normal" text-anchor="start" xml:space="preserve">-&gt;level[0]</text><text id="text66" x="150" y="1725" fill="#000" font-family="Helvetica" font-size="108" font-style="normal" font-weight="normal" text-anchor="start" xml:space="preserve">-&gt;level[1]</text><text id="text68" x="150" y="1950" fill="#000" font-family="Helvetica" font-size="108" font-style="normal" font-weight="normal" text-anchor="start" xml:space="preserve">-&gt;level[2]</text><text id="text70" x="300" y="525" fill="#000" font-family="Times" font-size="96" font-style="normal" font-weight="normal" text-anchor="middle" xml:space="preserve">0:7</text><text id="text72" x="1350" y="525" fill="#000" font-family="Times" font-size="96" font-style="normal" font-weight="normal" text-anchor="middle" xml:space="preserve">4:7</text><text id="text74" x="1875" y="525" fill="#000" font-family="Times" font-size="96" font-style="normal" font-weight="normal" text-anchor="middle" xml:space="preserve">0:1</text><text id="text76" x="2400" y="525" fill="#000" font-family="Times" font-size="96" font-style="normal" font-weight="normal" text-anchor="middle" xml:space="preserve">2:3</text><text id="text78" x="2925" y="525" fill="#000" font-family="Times" font-size="96" font-style="normal" font-weight="normal" text-anchor="middle" xml:space="preserve">4:5</text><text id="text80" x="3450" y="525" fill="#000" font-family="Times" font-size="96" font-style="normal" font-weight="normal" text-anchor="middle" xml:space="preserve">6:7</text><text id="text82" x="825" y="525" fill="#000" font-family="Times" font-size="96" font-style="normal" font-weight="normal" text-anchor="middle" xml:space="preserve">0:3</text><text id="text84" x="3600" y="150" fill="#000" font-family="Courier" font-size="96" font-style="normal" font-weight="normal" text-anchor="end" xml:space="preserve">struct rcu_state</text><polyline style="stroke:#000;stroke-width:7.00025806;stroke-linejoin:miter;stroke-linecap:butt;stroke-miterlimit:4;stroke-dasharray:none;marker-end:none" id="polyline86" points="825 1875 1800 1875 1800 1125"/><polyline style="stroke:#000;stroke-width:7.00025806;stroke-linejoin:miter;stroke-linecap:butt;stroke-miterlimit:4;stroke-dasharray:none;marker-end:url(#Arrow2Lend)" id="polyline88" points="1800 900 1800 691"/><polyline style="stroke:#000;stroke-width:7;stroke-linejoin:miter;stroke-linecap:butt" id="polyline92" points="825 1650 1200 1650 1200 1125 750 1125 750 1050"/></g></svg>